/* XPM */
static char *_5f98a1acf3743d7e888664f01ebcfacLlmHKcpVwmzx0mcH[] = {
/* columns rows colors chars-per-pixel */
"64 64 202 2 ",
"   c #A77500",
".  c #A87700",
"X  c #AB7B00",
"o  c #AD7F09",
"O  c #B07F00",
"+  c #AF8006",
"@  c #AF810C",
"#  c #B38102",
"$  c #B88502",
"%  c #BC8A06",
"&  c #B1820A",
"*  c #B98709",
"=  c #B28614",
"-  c #B78914",
";  c #B98B14",
":  c #B58A1D",
">  c #BA8D19",
",  c #BE921D",
"<  c #B68D24",
"1  c #B88E24",
"2  c #B88F28",
"3  c #B78F29",
"4  c #BB922D",
"5  c #BA9025",
"6  c #BB9434",
"7  c #BD983C",
"8  c #C28D05",
"9  c #CC9504",
"0  c #CE990C",
"q  c #CF9805",
"w  c #D29904",
"e  c #DA9F00",
"r  c #CF9A10",
"t  c #D29D10",
"y  c #DEA201",
"u  c #DAA20C",
"i  c #DAA313",
"p  c #EAAC00",
"a  c #EFB001",
"s  c #F4B401",
"d  c #F9B700",
"f  c #F9B800",
"g  c #F9BB0B",
"h  c #F3B60B",
"j  c #F9BD14",
"k  c #F7BF1D",
"l  c #F8BF1B",
"z  c #F7BD17",
"x  c #EAB318",
"c  c #C29624",
"v  c #C49926",
"b  c #C99F2F",
"n  c #C3992B",
"m  c #C09A3B",
"M  c #C89E31",
"N  c #CCA233",
"B  c #D4AB3E",
"V  c #EFBD2F",
"C  c #F3BD22",
"Z  c #EEBF3A",
"A  c #FBC11E",
"S  c #F7C023",
"D  c #F9C124",
"F  c #F9C42A",
"G  c #EFC03D",
"H  c #F9C632",
"J  c #F3C33A",
"K  c #F9C93D",
"L  c #F7C63A",
"P  c #BF9B44",
"I  c #BF9D48",
"U  c #C09C44",
"Y  c #D6AE43",
"T  c #D9B145",
"R  c #DAB34A",
"E  c #C5A554",
"W  c #C7A759",
"Q  c #C7A95C",
"!  c #CDAC55",
"~  c #DBB653",
"^  c #DFB953",
"/  c #C6A34A",
"(  c #E0BA53",
")  c #E3BE5A",
"_  c #CCAF66",
"`  c #D6B86E",
"'  c #D6B76B",
"]  c #CEB372",
"[  c #CFB77A",
"{  c #D1B674",
"}  c #D0B77B",
"|  c #D2BA7E",
" . c #D8BE7E",
".. c #EEC142",
"X. c #F7C945",
"o. c #F9CA42",
"O. c #F9CD4C",
"+. c #F5C949",
"@. c #E7C35F",
"#. c #E8C45F",
"$. c #F9CE53",
"%. c #F8CF58",
"&. c #F7CD53",
"*. c #FBD056",
"=. c #F9D15D",
"-. c #E7C360",
";. c #EBC763",
":. c #EDCA67",
">. c #EECB68",
",. c #F1CF6D",
"<. c #F4CE61",
"1. c #F7D262",
"2. c #F9D364",
"3. c #F2D06E",
"4. c #F9D56B",
"5. c #F4D372",
"6. c #F8D775",
"7. c #F9D877",
"8. c #F9D979",
"9. c #F4D479",
"0. c #D5BE84",
"q. c #D5BF8A",
"w. c #D8C187",
"e. c #D8C28C",
"r. c #D7C496",
"t. c #DBC693",
"y. c #DDCA9C",
"u. c #DBC896",
"i. c #E1CA8E",
"p. c #F9DB84",
"a. c #F9DD8C",
"s. c #F5D989",
"d. c #F9DE93",
"f. c #FAE39D",
"g. c #FBE196",
"h. c #DECCA2",
"j. c #DFCFAA",
"k. c #DDD0B1",
"l. c #E2D2AC",
"z. c #E2D4B3",
"x. c #E2D6BB",
"c. c #E5D9BC",
"v. c #EDDEB4",
"b. c #FAE6AB",
"n. c #FAE3A3",
"m. c #FCE9B2",
"M. c #FAEBBD",
"N. c #F8E8B8",
"B. c #E5DBC5",
"V. c #E9DEC3",
"C. c #E6DDC8",
"Z. c #ECE1C5",
"A. c #ECE2CB",
"S. c #FBECC1",
"D. c #F6EBCC",
"F. c #FCF0CB",
"G. c #EAE5D9",
"H. c #EEE9DE",
"J. c #F1EAD7",
"K. c #F2ECDC",
"L. c #FDF2D4",
"P. c #FBF4DF",
"I. c #EDEAE3",
"U. c #EEEEEE",
"Y. c #F1EDE2",
"T. c #F0EEEC",
"R. c #F6F1E6",
"E. c #FAF4E5",
"W. c #F3F1ED",
"Q. c #F9F5EB",
"!. c #FDF9EE",
"~. c #FFF8E4",
"^. c #EFEFF0",
"/. c #EFF0F2",
"(. c gray94",
"). c #F0F0F1",
"_. c gray95",
"`. c #F4F4F4",
"'. c gray96",
"]. c #F4F4F5",
"[. c #F6F6F6",
"{. c gray97",
"}. c #F6F6F7",
"|. c #F5F6F7",
" X c #F3F3F3",
".X c #F9F7F4",
"XX c #FCFAF5",
"oX c #F6F6F8",
"OX c #F6F6F8",
"+X c #F7F8FA",
"@X c #F8F8F8",
"#X c #F9F9F9",
"$X c #F9F9FA",
"%X c #FBFBFB",
"&X c #F9FAFA",
"*X c #FAFBFC",
"=X c #FDFDFD",
"-X c #FCFCFD",
";X c white",
":X c #FFFFFF",
">X c #FDFDFE",
",X c #FDFDFD",
/* pixels */
";X;X#XU.U.#X;X;X(.U.{.;X;X{.U.(.;X;X#XU.U.#X;X;X(.U.{.;X;X{.U.^.;X;X#XU.U.#X;X;X(.U.{.;X;X(.U.U.;X;X#XU.U.#X;X;X(.U.{.;X;X{.U.U.",
";X;X#XU.U.#X;X;X(.U.{.;X;X{.U.U.;X;X#XU.U.#X;X;X(.U.{.;X;X{.U.(.;X;X#XU.U.#X;X;X(.U.{.;X;X{.U.(.;X;X#XU.U.#X;X;X(.U.{.;X;X{.U.U.",
"#X#X{.{.{.{.#X#X{.(.{.#X#X{.{.{.#X#X{.{.{.{.#X@X{.{.{.#X#X{.{.{.#X#X{.{.{.{.#X#X{.{.{.#X#X{.{.{.#X#X{.{.{.{.#X#X{.(.{.#X#X{.{.{.",
"U.U.{.;X;X{.U.(.;X;X#XU.U.#X;X;X(.U.{.;X;X{.U.(.;X;X#XU.U.#X;X;X(.U.{.;X;X{.U.(.;X;X#XU.U.#X;X;X(.U.{.;X;X{.U.(.;X;X#XU.U.#X;X;X",
"U.U.{.;X;X{.U.(.;X;X#XU.U.#X;X;X(.U.{.;X;X{.U.(.;X;X#XU.U.#X;X;X(.U.{.;X;X{.U.(.;X;X#XU.U.#X;X;X(.U.{.;X;X{.U.(.;X;X#XU.U.#X;X;X",
"#X#X{.{.{.{.#X#X{.{.{.#X#X{.{.{.#X#X{.{.{.{.#X{.{.{.oX*X#XoX{.oX*X*X#X{.oX#X*X*XoX{.{.#X#X{.{.{.#X#X{.{.{.{.#X#X{.{.{.#X#X{.{.{.",
";X;X#XU.U.#X;X;X(.U.{.;X;X{.U.(.;X;X#XU.U.#X;X;XT.B.c.Z.Z.c.x.x.V.Z.V.x.x.V.Z.V.c.I.{.;X;X XU.(.;X;X#XU.U.#X;X;X(.U.{.;X;X{.U.U.",
";X;X#X(.(.{.;X#X(.U.{.;X;X{.(.(.#X;X#X(.(.#X;X;XT.P o @ @ @ @ @ @ @ @ @ @ @ @ @ : C.oX;X;X{.(.(.#X;X#X(.(.{.;X#X(.U.{.;X;X{.(.(.",
"(.(.{.;X;X{.U.(.#X;X#X(.(.#X;X#X(.(.{.;XXXY.H.I.K.m # & & & & & & & & & & & + X = V.R.I.H.Q.;X#X(.(.{.;X;X{.U.(.#X;X#X(.(.#X;X;X",
"U.U.{.;X;X{.U.U.;X;X#XU.U.#X;X;X(.U.{.;Xl.4 4 4 4 ^ ;.;.;.;.;.;.;.;.;.;.;.;.R X X 1 4 4 2 { ;X;X(.U.{.;X;X{.U.(.;X;X#XU.U.#X;X;X",
"{.{.{.#X#X{.{.{.#X#X{.{.{.{.#X#X{.{.{.-Xu.X X X X @.8.8.8.8.8.8.8.8.8.8.8.8.@.X X X X X X E #X#X{.{.{.#X#X{.{.{.#X#X{.{.{.{.#X#X",
";X;X#XU.U.#X;X;X(.U.{.;X;X{.U.(.;X;Xu.Q ! R R R R J H H H H H H H H H H H H J R R R R , X < Q [ Q.;X#XU.U.#X;X;X(.U.{.;X;X{.U.U.",
";X;X#XU.U.#X;X;X(.U.{.;X;X{.U.(.;X;XE   b 8.8.8.8.k d f f f f f f f f f f d k 8.8.8.8.N X X X : R.;X#XU.U.#X;X;X(.U.{.;X;X{.U.U.",
"{.{.{.#X#X{.{.{.#X#X{.{.{.{.#X Xz.h.! v R 8.6.$.O.j f p y y y y y y y y p f j O.$.6.8.R n , X = u.j.Y.#X#X{.{.{.#X#X{.{.{.{.#X#X",
"U.U.{.;X;X(.U.(.;X;X#XU.U.#X;XR.< X ^ 8.8.8.2.g f f f 9 X X X X X X X X 9 f f f g 2.8.8.8.^ X X X o c.;X;X{.U.(.;X;X#XU.U.#X;X;X",
"(.(.{.;X;X{.(.(.#X;X#X(.(.W.K.Z.4 - ) 8.6.4.%.g d s a r - - - - - - - - 0 a s d g %.4.6.8.) - - X X y.K.Q.{.(.(.#X;X#X(.(.#X;X;X",
";X;X#X(.(.#X;X#X(.(.{.;X;Xc.< 1 ;.3.6.8.O.g g f d 8 # B 5.3.3.3.3.3.3.5.B # 8 d f g g O.8.6.3.#.& X = = q.*X;X#X(.(.{.;X;X{.(./.",
";X;X#XU.U.#X;X;X(.U.{.;X;Xz.X & >.8.7.8.X.f f d s % X T 8.7.8.8.8.8.7.8.T X % s d f f X.8.7.8.>.& X X X [ *X;X;X(.U.(.;X;X{.U.U.",
"#X#X{.{.{.{.#X#X{.{.{.#X*Xz.X & ;.8.o.S j f a 8 8 T ) Z S o.7.8.8.7.o.S Z ) T 8 8 a f j S o.8.;.& X X X } #X#X#X{.{.{.#X#X{.{.{.",
"U.U.{.;X;X{.U.(.;X;X#X^. Xz.X & ;.8.F d f f p X X -.8.H d F 8.8.8.7.D d H 8.-.X X p f f d F 8.;.& X X X 0.@X^.(.;X;X#XU.U.#X;X;X",
"U.U.{.;X;X{.U.(.;X;X#Xz.] { }  .9.8.F f p w t B B G K l d j K o.6.8.$.K K K V w w w w p f F 8.5.Y B - X P { r.T.;X;X#XU.U.#X;X;X",
"#X#X{.{.{.{.#X#X{.{.@X} . P ,XXXa.6.F f e X > 6.7.k d f f f d g 4.8.8.8.X.d d f d $ X e f F 8.8.8.8.c X X X P  X{.{.{.#X#X{.{.{.",
";X;X#XU.U.#X;X;X(.U.{.| X U XXXXb.f.H f e X > 5.6.k f f f f f g O.=.4.8.&.S l f s $ X e f F 8.8.8.6.c X X X U XXU.U.{.;X;X{.U.U.",
";X;X#X(.(.#X;X#X(.^.oX} X U XX;X;X,X$.f e X > 5.6.k d f f f f f f f $.8.7.7.1.f s $ X e f F 8.8.8.6.c X X X U .X(.U.{.;X;X{.(.(.",
"(.(.{.;X;X{.U.(.#X;X*X} X U XX;X;X;X*.f e X > 5.6.D g f f f f f f f O.4.6.8.2.j h $ X e f F 8.8.8.6.c X X X P W.-X;X{.(.(.@X;X;X",
"U.U.{.;X;X{.U.(.;X;X*X} X U XX;X;X;X*.f e X > 5.8.4.2.F d f f f f f g j o.8.6.2.<.; X e f F 8.8.8.6.c X X X P T.;X;X#XU.U.#X;X;X",
"{.{.{.#X#X{.{.{.#X#X#X} X U XX;X;X;X*.f e X > 5.8.8.8.H d f f f f f f d H 8.8.8.5.> X e f F 8.8.8.6.c X X X P (.#X#X{.{.{.{.#X#X",
";X;X#XU.U.#X;X;X(.U.{.| X U XX;X;X;X*.f e X 5 M.F.a.7.=.O.H f f f f f f j F o.7.5.> X e f F 8.8.8.6.c X X X U XX(.U.{.;X;X{.U.U.",
";X;X#XU.U.#X;X;X(.U.{.| X U XX;X;X;X*.f e X 4 Q.;Xd.6.8.8.$.f d f f f f f d k 7.5.> X e f F 8.8.8.6.c X X X U XX(.U.{.;X;X{.U.U.",
"(.{.{.#X#X{.(.{.#X#X#X} X U XX;X;X;X*.f e X 4 Q.;XM.b.a.8.1.H F f f f f f f j +.+.; X e f F 8.8.8.6.c X X X P (.#X#X{.{.{.{.#X#X",
"U.U.{.;X;X{.U.(.;X;X*X} X U XX;X;X;X*.f e X 4 Q.;X;X;Xm.6.7.8.4.g d f f f f f f s $ X e f F 8.8.8.6.c X X X P T.;X;X#XU.U.#X;X;X",
"U.(.{.;X;X{.(.(.#X;X*X} X U XX;X;X;X*.f e X 4 Q.;X;X;XM.a.a.8.4.D z g f f f f f s $ X e f F 8.8.8.6.c X X X P W.-X;X#X(.(.#X;X;X",
";X;X#X(.(.#X;X#X(.(.oX} X U XX;X;X;X*.f e X 4 Q.;X;X;X,XXXF.8.7.6.6.D d f f f f s $ X e f F 8.8.8.6.c X X X U .X(.(.{.;X;X{.U.(.",
";X;X#XU.U.#X;X;X(.U.{.| X U !.,X;X;X*.f e X 4 Q.;X;X;X;X;XL.p.8.8.7.F f f f f f s $ X e f F 8.8.8.6.c X X X U XX(.U.{.;X;X{.U.U.",
"#X#X{.{.{.{.#X#X{.{.@X} X n d.f.XX;X*.f e X 4 Q.;X;X;X;X;XXXE.L.p.7.2.1.L f f f s $ X e f F 8.8.8.6.c X X X P  X{.{.{.#X#X{.{.{.",
"U.U.{.;X;X{.U.(.;X;X*X} X c 6.p.!.;X*.f e X 4 Q.;X;X;X;X;X;X;XXXp.6.8.8.X.d f f s $ X e f F 8.8.8.6.c X X X P T.;X;X#XU.U.#X;X;X",
"U.U.{.;X;X{.U.(.;X;X*X} X c 6.8.b.m.K f e X 4 Q.;X;X;X;X;X;X;X,XF.S.d.8.1.o.H f s $ X e f F 8.8.8.6.c X X X P T.;X;X#XU.U.#X;X;X",
"#X#X{.{.{.{.#X{.{.{.@X} X c 6.8.6.7.F f e X 4 Q.;X;X;X;X;X;X;X;X;X;Xn.6.8.8.1.f s $ X e f F 8.8.8.6.c X X X P  X{.{.{.#X#X{.{.{.",
";X;X#XU.U.#X;X;X(.U.{.| X c 6.8.8.8.F f e X 4 Q.;X;X;X;X;X;X;X;X;X;XM.f.a.8.2.F C * X e f F 8.8.8.6.c X X X U XX(.U.{.;X;X(.U.U.",
";X;X#X(.(.#X;X#X(.(.oX} X c 6.8.8.8.F f e X 4 Q.;X;X;X;X;X;X;X;X;X;X;X;XS.6.7.7.5.> X e f F 8.8.8.6.c X X X U .X(.(.{.;X;X{.(.(.",
"(.(.{.;X;X{.(.(.#X;X*X} X c 6.8.8.8.F f e X 4 Q.;X;X;X;X;X;X;X;X;X;X;X;XF.p.p.8.5.> X e f F 8.8.8.6.c X X X P W.-X;X#X(.(.#X;X;X",
"U.U.(.;X;X{.U.U.;X;X*X} X c 6.8.8.8.F f e X 4 Q.;X;X;X;X;X;X;X;X;X;X;X;XXX!.L.8.5.> X e f F 8.8.8.6.c X X X P T.;X;X#XU.U.#X;X;X",
"{.{.{.#X#X{.{.{.#X#X#X} X c 6.6.8.8.F f e X 4 R.;X;X;X;X;X;X;X;X;X;X;X;X;X;XP.8.5.> X e f F 8.8.6.6.c X X X I (.@X#X{.{.{.{.#X#X",
";X;X#XU.U.#X;X;X(.U.{.J.l.w.n b ,.8.F f a y i / W J.;X;X;X;X;X;X;X;X;X;X;X;XD.M v u y a f F 8.,.b v & X W l.V.,X(.U.{.;X;X{.U.U.",
";X;X#XU.U.#X;X;X(.U.{.;X;Xc.X & ;.8.F d f f p X o Z.;X;X;X;X;X;X;X;X;X;X;X;XZ.X X p f f d F 8.;.& X X X } ;X;X;X(.U.{.;X;X{.U.U.",
"{.{.{.#X#X{.{.{.#X#XoX{.oXz.X & ;.8.O.L S f s w 0 ' w.Z.;X;X;X;X;X;X;X;XZ.w.q.] { 5.6.$.H O.8.;.& X X X } @X{.{.@X#X{.{.{.{.#X#X",
"U.U.{.;X;X{.U.(.;X;X#XU./.z.X & >.8.8.8.O.d f f d $ . e.;X;X;X;X;X;X;X;Xe.  7 XX;X;X;Xb.6.8.8.>.& X X X } {.U.(.;X;X#XU.U.#X;X;X",
"(.U.{.;X;X{.(.(.#X;X#X(.(.B.7 m ) #.5.8.$.l j f d 9 $ ` Z.Z.Z.Z.Z.Z.Z.Z.q.6 _ XX;X;X;XS.g.s.;.^ & X 3 6 y.{.(.(.#X;X#X(.(.#X;X;X",
";X;X#X(.(.#X;X#X(.(.{.;X;X XI.A.1 X ( 8.7.6.1.g f d d 0 @ @ @ @ @ @ @ X { XXXX;X;X;X;X;X;Xl.+ + X X j.U.U.#X;X#X(.(.{.;X;X{.(.U.",
";X;X#XU.U.#X;X;X(.U.{.;X;X{.U.G.4 & ~ 5.6.8.2.j f f f q X O O O & & & @ } ;X;X;X;X;X;XXXXXh.X X & = x./.U.#X;X;X(.U.{.;X;X{.U.U.",
"#X#X{.{.{.{.#X#X{.(.{.#X#X{.{.W.A.V.! ; B 8.6.1.=.l f s p p p x v.A.A.A.R.;X;X;X;X;X;X0.6 < X : z.A.W.{.{.{.#X#X{.(.{.#X#X{.{.(.",
"U.U.{.;X;X{.U.(.;X;X#XU.U.#X;X;X(./.E   N 8.8.8.7.k d f f f f A ~.;X;X;X;X;X;X;X;X;X;X_ X X X < G./.{.;X;X{.U.(.;X;X#XU.U.#X;X;X",
"U.U.{.;X;X{.U.(.;X;X#XU.U.#X;X;X(.U.l.t.` N N N N ..o.o.o.o.o.$.n.m.~.;X;X;XK.[ ] ] ] 4 X 6 t.y.I.U.{.;X;X{.U.(.;X;X#XU.U.#X;X;X",
"#X#X{.{.{.{.#X#X{.{.{.#X#X{.{.{.#X#X#X+Xr.. X X X @.8.8.8.8.8.8.8.8.L.;X;X;XZ.o X X . X . E {.oX#X#X{.{.{.{.#X#X{.{.{.#X#X{.{.{.",
";X;X#XU.U.#X;X;X(.U.{.;X;X{.U.(.;X;X#X^.k.W W W W ~ ( ( ( ( ( ( ( ( i.l.l.l.q.o X U W W W q.U.(.;X;X#XU.U.#X;X;X(.U.{.;X;X{.U.U.",
";X;X#X(.(.{.;X#X(.U.{.;X;X{.(.(.#X;X#X(.W.XX,X#XY.6 X X X X X X X X X X X X X X & B.{.,X,X{.(.(.#X;X#X(.(.{.;X#X(.U.{.;X;X{.(.(.",
"(.(.{.;X;X{.U.(.#X;X#X(.(.#X;X#X(.(.{.;X;X{.U.(. XW < < < < < < < < < < < < < < 6 J.#X(.(.#X;X#X(.(.{.;X;X{.U.(.#X;X#X(.(.#X;X;X",
"U.U.{.;X;X{.U.(.;X;X#XU.U.#X;X;X(.U.{.;X;X{.U.(.;XQ.Y.G.G.Y.R.R.G.G.H.R.R.H.G.G.R.,X#XU.U.#X;X;X(.U.{.;X;X{.U.(.;X;X#XU.U.#X;X;X",
"{.{.{.#X#X{.{.{.#X#X{.{.{.{.#X#X{.{.{.#X#X{.{.{.#X#X#X{.{.#X#X#X{.{.{.#X#X{.{.{.#X#X{.{.{.{.#X#X{.{.{.#X#X{.{.{.#X#X{.{.{.{.#X#X",
";X;X#XU.U.#X;X;X(.U.{.;X;X{.U.(.;X;X#XU.U.#X;X;X(.U.{.;X;X{.U.(.;X;X#XU.U.#X;X;X(.U.{.;X;X{.U.(.;X;X#XU.U.#X;X;X(.U.{.;X;X{.U.U.",
";X;X#XU.U.#X;X;X(.U.{.;X;X{.U.(.;X;X#XU.U.#X;X;X(.U.{.;X;X{.U.(.;X;X#XU.U.#X;X;X(.U.{.;X;X{.U.(.;X;X#XU.U.#X;X;X(.U.{.;X;X{.U.U.",
"{.{.{.#X#X{.{.{.#X#X{.{.{.{.#X{.{.{.{.#X#X{.{.{.#X#X{.{.{.{.#X{.{.{.{.#X#X{.{.{.#X#X{.{.{.{.#X{.{.{.{.#X#X{.{.{.#X#X{.{.{.{.#X#X",
"U.U.{.;X;X(.U.(.;X;X#XU.U.#X;X;X^.U.{.;X;X(.U.(.;X;X#XU.U.#X;X;X(.U.{.;X;X{.U.(.;X;X#XU.U.#X;X;XU.U.{.;X;X(.U.(.;X;X#XU.U.#X;X;X",
"U.U.{.;X;X{.U.(.;X;X#XU.U.#X;X;X(.U.{.;X;X{.U.(.;X;X#XU.U.#X;X;X(.U.{.;X;X{.U.(.;X;X#XU.U.#X;X;X(.U.{.;X;X{.U.(.;X;X#XU.U.#X;X;X"
};
