/* XPM */
static char *_5a16aed26174907e8573e4f804999b9hkAruCXwUZOt1Y9N[] = {
/* columns rows colors chars-per-pixel */
"64 64 183 2 ",
"   c #5F2C1E",
".  c #612D1E",
"X  c #63301F",
"o  c #453C24",
"O  c #563120",
"+  c #543623",
"@  c #622F20",
"#  c #653121",
"$  c #6D3626",
"%  c #6B3825",
"&  c #6C3C2B",
"*  c #713927",
"=  c #713A29",
"-  c #783F2B",
";  c #743F31",
":  c #2D4E2C",
">  c #3B4327",
",  c #334B2B",
"<  c #2B522D",
"1  c #31502C",
"2  c #2C5530",
"3  c #2F5D34",
"4  c #325C33",
"5  c #35693B",
"6  c #37703E",
"7  c #38713F",
"8  c #46462A",
"9  c #5B4E34",
"0  c #5E5137",
"q  c #6E492B",
"w  c #7C422E",
"e  c #77482F",
"r  c #744531",
"t  c #7C4432",
"y  c #7D4B35",
"u  c #7F493A",
"i  c #615339",
"p  c #7A5635",
"a  c #426537",
"s  c #436738",
"d  c #496B3A",
"f  c #53623A",
"g  c #3A7642",
"h  c #6D5A42",
"j  c #457E46",
"k  c #5A7740",
"l  c #824632",
"z  c #844834",
"x  c #894B36",
"c  c #8B4E3D",
"v  c #8C523C",
"b  c #8D5341",
"n  c #8F5942",
"m  c #935542",
"M  c #975846",
"N  c #985847",
"B  c #9B5B4A",
"V  c #A15E4E",
"C  c #96634D",
"Z  c #966D4C",
"A  c #976050",
"S  c #9A6252",
"D  c #A56253",
"F  c #A86354",
"G  c #A56B5A",
"H  c #AD7361",
"J  c #B47A6A",
"K  c #B57B6B",
"L  c #418147",
"P  c #488147",
"I  c #448549",
"U  c #478B4B",
"Y  c #498C4C",
"T  c #4C914F",
"R  c #51924F",
"E  c #4F9350",
"W  c #509451",
"Q  c #559B55",
"!  c #5A9D56",
"~  c #6E8D4D",
"^  c #758D4B",
"/  c #7B924E",
"(  c #6B9753",
")  c #6B9A52",
"_  c #5AA057",
"`  c #5CA359",
"'  c #63A65B",
"]  c #6CA65A",
"[  c #63AA5D",
"{  c #69AD5E",
"}  c #74AD5E",
"|  c #7EAB5C",
" . c #72B15F",
".. c #6BAE61",
"X. c #75A867",
"o. c #6EB061",
"O. c #72B161",
"+. c #7BB563",
"@. c #7FB864",
"#. c #7CB76C",
"$. c #8E8C4B",
"%. c #918F4F",
"&. c #8A9957",
"*. c #999855",
"=. c #8EA150",
"-. c #85AE5E",
";. c #8AAE5D",
":. c #96AE5D",
">. c #8BB05E",
",. c #A1B45F",
"<. c #AC8468",
"1. c #B7936F",
"2. c #BC8372",
"3. c #BF8B78",
"4. c #B09C7D",
"5. c #84B563",
"6. c #8CBB66",
"7. c #84BA6B",
"8. c #8EBF68",
"9. c #9EB561",
"0. c #96BF68",
"q. c #8CBE74",
"w. c #A6A462",
"e. c #A8A764",
"r. c #A2B563",
"t. c #A6BB63",
"y. c #AEBF65",
"u. c #ABBC6A",
"i. c #B2BF75",
"p. c #94C26A",
"a. c #9CC56C",
"s. c #90C077",
"d. c #AFC065",
"f. c #A1C56B",
"g. c #A4CA6E",
"h. c #AACB6F",
"j. c #B0C266",
"k. c #B3C669",
"l. c #B4C96B",
"z. c #BACE6D",
"x. c #BED26F",
"c. c #A0C871",
"v. c #ADCE70",
"b. c #B0CF71",
"n. c #B7C479",
"m. c #B4D172",
"M. c #BCD372",
"N. c #B7D37B",
"B. c #BBD57C",
"V. c #C0D470",
"C. c #C8DA7C",
"Z. c #BFAC8D",
"A. c #BFBF96",
"S. c #C0BF97",
"D. c #ADCD85",
"F. c #AECF88",
"G. c #BBCB84",
"H. c #BBC18B",
"J. c #AFD088",
"K. c #B9D485",
"L. c #B4D28B",
"P. c #B5D38C",
"I. c #C1D584",
"U. c #C3D985",
"Y. c #C9D28A",
"T. c #C7D98C",
"R. c #C8DC8D",
"E. c #CCDD8F",
"W. c #C2C793",
"Q. c #C5CA97",
"!. c #C0C299",
"~. c #C9CA9F",
"^. c #C6DC96",
"/. c #CCDE93",
"(. c #CEDF9A",
"). c #CFE096",
"_. c #D0E197",
"`. c #D2E19A",
"'. c #D3E29D",
"]. c #D5E39E",
"[. c #D6E49E",
"{. c #E0E99E",
"}. c #CCCEA5",
/* pixels */
"V.V.V.V.V.V.V.V.V.V.V.V.V.V.V.V.V.V.V.V.V.V.V.V.V.V.V.V.V.V.V.V.V.V.V.V.V.V.V.V.V.V.V.V.V.V.V.V.V.V.V.V.V.V.V.V.V.V.V.V.V.V.V.V.",
"V.V.V.V.V.V.V.V.V.V.V.V.V.V.V.V.V.V.V.V.V.V.V.V.V.V.V.V.V.V.V.V.V.V.V.V.V.V.V.V.V.V.V.V.V.V.V.V.V.V.V.V.V.V.V.V.V.V.V.V.V.V.V.V.",
"V.V.V.V.V.V.V.V.V.V.V.V.V.V.V.V.V.V.V.V.V.V.V.V.V.V.V.V.V.V.V.V.V.V.V.V.V.V.V.V.V.V.V.V.V.V.V.V.V.V.V.V.V.V.V.V.V.V.V.V.V.V.V.V.",
"V.V.V.V.V.V.V.V.V.V.V.V.V.V.V.V.V.V.V.V.V.V.V.V.V.V.V.V.V.V.V.V.V.V.V.V.V.V.V.V.V.V.V.V.V.V.V.V.V.V.V.V.V.V.V.V.V.V.V.V.V.V.V.V.",
"V.V.V.V.V.V.V.V.V.V.V.V.V.V.V.V.V.V.V.V.V.V.V.V.V.V.V.V.V.V.V.V.V.V.V.V.V.V.V.V.V.V.V.V.V.V.V.V.V.V.V.V.V.V.V.V.V.V.V.V.V.V.V.V.",
"V.V.V.V.V.V.V.V.V.V.V.V.V.V.V.V.V.V.V.V.V.V.V.V.V.V.V.V.V.V.V.V.V.V.V.V.V.V.V.V.V.V.V.V.V.V.V.V.V.V.V.V.V.V.V.V.V.V.V.V.V.V.V.V.",
"V.V.V.V.V.V.V.V.V.V.V.V.V.V.V.V.V.V.V.V.V.V.V.V.V.V.V.V.V.V.V.V.V.V.V.V.V.V.V.V.V.V.V.V.V.V.V.V.V.V.V.V.V.V.V.V.V.V.V.V.V.V.V.V.",
"V.V.V.V.V.V.V.V.V.V.V.V.V.V.V.V.V.V.V.V.V.V.V.V.V.x.x.x.x.x.x.x.x.x.x.V.V.V.V.V.V.V.V.V.V.V.V.V.V.V.V.V.V.V.V.V.V.V.V.V.V.V.V.V.",
"V.V.V.V.V.V.V.V.V.V.V.V.V.V.V.V.V.V.V.V.V.V.V.V.V.m._.[.[.[.[.[.[.[.[.V.V.V.V.V.V.V.V.V.V.V.V.V.V.V.V.V.V.V.V.V.V.V.V.V.V.V.V.V.",
"V.V.V.V.V.V.V.V.V.V.V.V.V.V.V.V.V.V.V.V.V.V.u.`.`.`.].].].].].].]._.m.`.N.m.l.V.V.V.V.V.V.V.V.V.V.V.V.V.V.V.V.V.V.V.V.V.V.V.V.V.",
"V.V.V.V.V.V.V.V.V.V.V.V.V.V.V.V.V.V.V.V.V.n.T.].].].].].].].].].].).m.I.m.m.h.| | z.V.V.V.V.V.V.V.V.V.V.V.V.V.V.V.V.V.V.V.V.V.V.",
"V.V.V.V.V.V.V.V.V.V.V.V.V.V.V.V.V.V.V.V.V.T.].].].].].].].].].].`./.B.m.m.m.h.O.[ 9.l.V.V.&.=.=.V.V.V.=.=.=.V.V.V.V.V.V.V.V.V.V.",
"V.V.V.V.V.V.V.V.V.V.V.V.V.V.V.V.V.M.z.z.z.T.].].].].].].].].].].U.B.].m.m.m.m.m.[ [ :.z.z.&.&.=.=.V.=.=.=.=.V.V.V.V.V.V.V.V.V.V.",
"V.V.V.V.V.V.V.V.V.V.V.V.V.V.V.V.V.u.].].m./.R.m.m.m.m.m.m.m.m.m.m.m.m.m.m.m.m.m.[ [ [ [ { V.V.&.=.=.=.=.V.V.V.V.V.V.V.V.V.V.V.V.",
"V.V.V.V.V.V.V.V.V.V.V.V.V.V.V.V.I.E.m.m.m.+.7.m.m.m.m.m.m.m.m.m.m.m.m.m.m.m.g.{ [ ^.(.(.(.].o.{ ( &.=.V.V.V.V.V.V.V.V.V.V.V.V.V.",
"V.V.V.V.V.V.V.V.V.V.V.V.V.V.V.G.U.B.m.m.@.{ ' ] @.m.m.m.m.m.m.m.m.m.m.m.m.m.a.W F.'.].].].].a.O.' ) ( x.V.V.V.V.V.V.V.V.V.V.V.V.",
"V.V.V.V.V.V.V.V.V.V.V.V.V.x.u./.B.m.m.m.[ ` Q Y _ a.a.a.a.a.a.a.a.a.a.a.0.0.5.Y P.'.)./.].].m.+.[ [ [ z.V.V.V.V.V.V.V.V.V.V.V.V.",
"V.V.V.V.V.V.V.V.V.V.V.V.V.z.`.m.b.b.b.v.[ T U U U [ [ [ [ [ [ [ [ [ [ [ Y U U U [ ^.B.B.].].m.+.[ [ [ z.V.V.V.V.V.V.V.V.V.V.V.V.",
"V.V.V.V.V.V.V.V.V.V.V.V.V.z.[ [ [ [ [ U [ T U U U [ [ [ [ [ [ [ [ [ [ U U U U U [ [ a.m.m.m.m.m.a.[ [ z.V.V.V.V.V.V.V.V.V.V.V.V.",
"V.V.V.V.V.V.V.V.V.V.V.| { { [ [ [ [ [ U Y U U U U Y Y Y Y Y Y Y Y Y Y U ` [ _ U Y [ [ { { { { { ` Y Y z.V.V.V.V.V.V.V.V.V.V.V.V.",
"V.V.V.V.V.V.V.V.V.V.V.t.;.{ P.P.P.P.L.D.` T U U U U U U U U U U U Y _ _ [ [ ` U U E E E E E E E T U U } t.V.V.V.V.V.V.V.V.V.V.V.",
"V.V.V.V.V.V.V.V.V.V.V.V.9.q.].].].`.R.J.[ Q W W W W Y U U U U E W Q [ [ [ [ ` W X.X.X.X.X.X.X.X.X.X.X.[ ;.t.V.V.V.V.V.V.V.V.V.V.",
"V.V.V.V.V.V.V.V.V.V.V.z.r.].].].'.R.v.[ [ [ [ ......W W W W W [ ......[ [ [ [ ..].].].].].].].].].`.`.[ [ | V.V.V.V.V.V.V.V.V.V.",
"V.V.V.V.V.V.V.V.V.V.V.G.].].].].B.m.v.[ [ [ s.].].].].].].].].].].].'.U ' [ #.].].].].].].].].].R.m.m.[ [ | V.V.V.V.V.V.V.V.V.V.",
"V.V.V.V.V.V.V.V.V.V.{ J.].].m.m.m.m.v.[ Y J.'.].].].].].].].].].].).m.b.R ! [ ..].].]./.m.m.m.m.m.m.m.[ 9.x.V.V.V.V.V.V.V.V.V.V.",
"V.V.V.V.V.V.V.V.x.} [ F./.B.m.m.m.m.m.g.` P./.B.].B.B.T.].].].K.B.B.m.m.R ! [ [ #.N.B.B.m.m.m.m.m.m.m.[ } >.V.V.V.V.V.V.V.V.V.V.",
"V.V.V.V.V.V.V.V.x.| [ s.D.I.m.m.m.m.m.m.[ D.I.m.R.m.m.B.R.].R.m.m.m.m.5.Y W _ [ [ p.h.v.p.m.m.m.h.p.p.[ [ | V.V.V.V.V.V.V.V.V.V.",
"V.V.V.V.V.V.V.V.V.V. .{ 7.`.m.v.v.v.m.h.[ a.v.m.m.m.m.m.N.`.m.m.m.m.m.U U U T ' [ [ p.p.[ v.v.v.p.[ [ [ { -.V.V.V.V.V.V.V.V.V.V.",
"V.V.V.V.V.V.V.V.V.V.V.| +.m.m.[ [ +.h.U [ [ 5.m.m.m.m.m.m.m.m.m.m.m.m.U U U U U [ [ [ [ [ [ [ [ [ [ [ [ r.V.V.V.V.V.V.V.V.V.V.V.",
"V.V.V.V.V.V.V.V.V.V.V.| [ [ [ [ [ _ Y U U ` [ [ [ [ [ [ ..m.m.m.m.f.Y U U U T [ [ v.R.'.'.'.'.B.p.[ [ [ r.V.V.V.V.V.V.V.V.V.V.V.",
"V.V.V.V.V.V.V.V.V.V.V.| [ [ [ [ [ ! U U U Y Q [ [ [ [ [ [ O.O.! ' { U U U U T [ [ o.c.B.B.B.B.m.v.a.T T 9.V.V.V.V.V.V.V.V.V.V.V.",
"V.V.V.V.V.V.V.V.V.V.;.] Q Q Q Q Q W U U U g j W W Q Q Q Q Q Q I Y Y 7 L L L I W P ' @.8.8.8.8.h.h.6.U L ( :.V.V.V.V.V.V.V.V.V.V.",
"V.V.V.V.V.V.V.V.V.V.' Y U U U U U U U U U 4 3 7 g U U U U U U g 7 5 , 7 7 7 7 6 < ! ` ` ` ` ` 6.6.` U 7 j / V.V.V.V.V.V.V.V.V.V.",
"V.V.V.V.V.V.V.V.V.V.4 5 g g g U U U U U U 4 < < g g g g g g g < < ,   < < < < < < g g g g g g g g g g < :.V.V.V.V.V.V.V.V.V.V.V.",
"V.V.V.V.V.V.V.V.V.V.M.k < < < g g g g g g g f r < < < < < < < O   . .     . .   < g g g g g g g 5 < < z.V.V.V.V.V.V.V.V.V.V.V.V.",
"V.V.V.V.V.V.V.V.V.V.V.j.t.,.< < 2 2 2 2 2 2 8 * e < < < < < O % $ $ $ $ $ # O , < < 2 2 2 2 2 2 < 4 t.V.V.V.V.V.V.V.V.V.V.V.V.V.",
"V.V.V.V.V.V.V.V.V.V.V.V.V.x.^ ^ a < < < < < , 8 - h i 0 9 o . $ * * * * # + > < < < < < < ^ ^ ^ ^ / V.V.V.V.V.V.V.V.V.V.V.V.V.V.",
"V.V.V.V.V.V.V.V.V.V.V.V.V.V.V.V.~ s a < < < : , * F M m c . . $ * * * $ O > < < < a s s d V.V.V.V.V.V.V.V.V.V.V.V.V.V.V.V.V.V.V.",
"V.V.V.V.V.V.V.V.V.V.V.V.V.V.V.V.V.V.k.< < < 8 # * F N M m * * * * * * . 1 < < < < k.V.V.V.V.V.V.V.V.V.V.V.V.V.V.C.V.V.V.V.V.V.V.",
"V.V.V.V.V.V.V.V.V.V.V.V.V.V.V.V.V.V.V.V.V.V.C.y.. F N M M M * * * $ . M.V.V.V.V.V.V.V.V.V.V.V.V.V.V.V.V.V.V.V.V.V.V.V.V.V.V.V.V.",
"V.V.V.V.V.V.V.V.V.V.V.V.V.V.V.V.V.V.V.V.V.V.e.2.. N D D D M * * * $ . V.V.V.V.V.V.V.V.V.V.V.V.V.V.V.V.V.V.V.V.V.V.V.V.V.V.V.V.V.",
"V.V.V.V.V.V.V.V.V.V.V.V.V.V.V.V.V.V.V.V.V.V.w.J % V m M B M * * * e $.V.V.V.V.V.V.V.V.V.V.V.V.V.V.V.V.V.V.V.V.V.V.V.V.V.V.V.V.V.",
"V.V.V.V.V.V.V.V.V.V.V.V.V.V.V.V.V.V.V.V.V.V.w.J - F x c N M w * * p V.V.V.V.V.V.V.V.V.V.V.V.V.V.V.V.V.V.V.V.V.V.V.V.V.V.V.V.V.V.",
"V.V.V.V.V.V.V.V.V.V.V.V.V.V.V.V.V.V.V.V.V.V.w.2.m D x m D M M - * p z.V.V.V.V.V.V.V.V.V.V.V.V.V.V.V.V.V.V.V.V.V.V.V.V.V.V.V.V.V.",
"V.V.V.V.V.V.V.V.V.V.V.V.V.V.V.V.V.V.V.V.V.V.V.j.m * w m D M M - * $ # V.V.V.V.V.V.V.V.V.V.V.V.V.V.V.V.V.V.V.V.V.V.V.V.V.V.V.V.V.",
"V.V.V.V.V.V.V.V.{.{.V.V.V.V.V.V.V.V.V.V.V.V.V.j.2.b - c F F M - * * * % j.V.V.V.V.V.V.V.V.V.V.V.V.V.V.V.V.V.V.V.V.V.V.V.V.V.V.V.",
"V.V.V.V.V.V.V.V.{.{.V.V.V.V.V.V.V.V.V.V.V.V.V.z.w.* b m v v M - * * * . d.V.V.V.V.V.V.V.V.V.V.V.V.V.V.V.V.V.V.V.V.V.V.V.V.V.V.V.",
"V.V.V.V.V.V.Y.{.{.{.{.V.V.V.V.V.V.V.V.V.V.V.V.V.V.@ B m w w B - * * * . d.V.V.V.V.V.V.V.V.V.V.V.V.V.V.V.V.V.V.V.V.V.V.V.V.V.V.V.",
"V.V.V.V.V.V.Y.Y.Y.{.{.V.V.V.V.V.V.V.V.V.V.V.V.V.V.# N c * * F - * * * . d.V.V.V.V.V.V.V.V.V.V.V.V.V.V.V.V.V.V.V.V.V.V.V.V.V.V.V.",
"V.V.V.V.V.V.V.V.Y.{.{.{.{.V.V.V.V.V.V.V.V.V.V.V.V.V.r # * * F - * * * . d.V.V.V.V.V.V.V.V.V.V.V.V.V.V.V.V.V.V.V.V.V.V.V.V.V.V.V.",
"V.V.V.V.V.V.V.V.Y.Y.Y.{.{.V.V.V.V.V.V.V.V.V.V.V.V.V.q l B * F w & * * . d.V.V.V.V.V.V.V.V.V.V.V.V.V.V.V.V.V.V.V.V.V.V.V.V.V.V.V.",
"V.V.V.V.V.V.V.V.V.V.Y.{.{.V.V.V.V.V.V.V.V.V.V.V.V.p & c D c N v t $ # G p *.V.{.{.{.V.V.V.V.V.{.{.{.V.V.V.V.V.V.V.V.V.V.V.V.V.V.",
"V.V.V.V.V.V.V.V.V.V.Y.{.{.V.V.V.V.V.V.V.V.V.V.V.V.. $ z N M M M t & u G - %.V.Y.{.{.{.V.V.V.V.{.{.{.V.V.V.V.V.V.V.V.V.V.V.V.V.V.",
"V.V.V.V.V.V.V.V.V.V.Y.{.{.M.V.V.V.V.V.V.V.V.x.k.k.X $ - z M M M t = J * c *.l.V.Y.{.Y.V.V.V.{.{.{.V.V.V.V.V.V.V.V.V.V.V.V.V.V.V.",
"V.V.V.V.V.V.V.V.V.V.Y.{.{.V.V.V.V.V.V.V.V.V.$.. * * w l z M M M l * * * * z Z V.Y.Y.{.{.V.{.{.{.{.V.V.V.V.V.V.V.V.V.V.V.V.V.V.V.",
"V.V.V.V.V.V.V.V.V.V.Y.Y.{.V.V.V.V.V.V.V.V.1.H v l l m G J M . c m b * * . A 2.2.m G.Y.{.Y.{.{.V.V.V.V.V.V.V.V.V.V.V.V.V.V.V.V.V.",
"V.V.V.V.V.V.n.Q.Q.Q.Q.Q.Q.Q.Q.H.H.H.H.H.1.b t z l H J B - $ . t z z w * $ = ; r J Z Z <.A.~.~.W.Q.Q.Q.Q.Q.Q.Q.Q.x.V.V.V.V.V.V.V.",
"i.i.i.i.i.i.Q.}.}.}.}.}.}.}.}.!.!.!.!.Z.H t = z B S S u . . . * w l l = = $ # . S D m C 4.!.!.~.}.}.}.}.}.}.}.}.i.i.i.i.i.V.V.V.",
"}.}.}.}.}.}.}.}.}.}.!.!.!.!.!.!.!.!.S.3.C v v n 3.& & & & & & & y v v v v y r & & 2.S b C !.!.!.!.!.}.}.}.}.}.}.}.}.}.}.}.V.V.V.",
"V.V.V.V.V.}.}.}.}.}.}.}.}.}.!.}.!.!.!.!.!.!.!.!.!.!.!.!.!.!.!.!.!.!.!.!.!.!.!.!.!.!.!.!.!.!.!.!.~.}.}.}.}.}.}.V.V.V.V.V.V.V.V.V.",
"V.V.V.V.V.x.x.x.x.x.x.x.x.x.x.x.x.x.x.x.x.x.x.x.x.x.x.x.x.x.x.x.x.x.x.x.x.x.x.x.x.x.x.x.x.x.x.x.x.x.x.x.x.x.x.V.V.V.V.V.V.V.V.V.",
"V.V.V.V.V.V.V.V.V.V.V.V.V.V.V.V.V.V.V.V.V.V.V.V.V.V.V.V.V.V.V.V.V.V.V.V.V.V.V.V.V.M.V.V.V.V.V.V.V.V.V.V.V.V.V.V.V.V.V.V.V.V.V.V.",
"V.V.V.V.V.V.V.V.V.V.V.V.V.V.V.V.V.V.V.V.V.V.V.V.V.V.V.V.V.V.V.V.V.V.V.V.V.V.V.V.M.V.V.V.V.V.V.V.V.V.V.V.V.V.V.V.V.V.V.V.V.V.V.V.",
"V.V.V.V.V.V.V.V.V.V.V.V.V.V.V.V.V.V.V.V.V.V.V.V.V.V.V.V.V.V.V.V.V.V.V.V.V.V.V.V.M.V.V.V.V.V.V.V.V.V.V.V.V.V.V.V.V.V.V.V.V.V.V.V."
};
