/* XPM */
static char *_71f97ed791c40ee9d34849a13f22905znl9mEV6yermjSLJ[] = {
/* columns rows colors chars-per-pixel */
"64 64 203 2 ",
"   c #1D0505",
".  c #210505",
"X  c #2C0505",
"o  c #2C0708",
"O  c #260808",
"+  c #250B0C",
"@  c #2D0909",
"#  c #330606",
"$  c #390607",
"%  c #390708",
"&  c #330A0B",
"*  c #3C090A",
"=  c #2D1210",
"-  c #381516",
";  c #3B1518",
":  c #312D2B",
">  c #500B0C",
",  c #570D0E",
"<  c #5C0D0E",
"1  c #550E10",
"2  c #5B0E11",
"3  c #451A1A",
"4  c #4B1A1C",
"5  c #551214",
"6  c #5C1214",
"7  c #591619",
"8  c #630C0D",
"9  c #6B0C0E",
"0  c #720C0F",
"q  c #620E12",
"w  c #6B0E11",
"e  c #750D11",
"r  c #790F13",
"t  c #641214",
"y  c #6C1215",
"u  c #631618",
"i  c #6B161A",
"p  c #64191B",
"a  c #6C1A1D",
"s  c #741315",
"d  c #7C1215",
"f  c #781817",
"g  c #751619",
"h  c #7B1518",
"j  c #741A1C",
"k  c #7B1B1C",
"l  c #5D1E21",
"z  c #6E1E21",
"x  c #731E22",
"c  c #7C1E21",
"v  c #422C2C",
"b  c #5F2325",
"n  c #523C3A",
"m  c #652424",
"M  c #6E2123",
"N  c #682729",
"B  c #67292B",
"V  c #6A2A2B",
"C  c #732324",
"Z  c #7B2324",
"A  c #742729",
"S  c #7C2729",
"D  c #742C2E",
"F  c #7B2B2C",
"G  c #66302F",
"H  c #6A2F31",
"J  c #7C2E32",
"K  c #643334",
"L  c #6E3332",
"P  c #763335",
"I  c #7D3235",
"U  c #7D3B3C",
"Y  c #4B4644",
"T  c #644E4C",
"R  c #7E4E4F",
"E  c #746161",
"W  c #821315",
"Q  c #8C1314",
"!  c #841519",
"~  c #8A1519",
"^  c #831A1D",
"/  c #8C1A1D",
"(  c #931615",
")  c #92171A",
"_  c #941A1C",
"`  c #991C1E",
"'  c #841E21",
"]  c #8B1C20",
"[  c #951E21",
"{  c #9A1E22",
"}  c #A11F23",
"|  c #832225",
" . c #8B2224",
".. c #832529",
"X. c #8C252A",
"o. c #86292B",
"O. c #8A2B2D",
"+. c #932325",
"@. c #9D2123",
"#. c #952529",
"$. c #9A262A",
"%. c #942A2C",
"&. c #99292C",
"*. c #812F33",
"=. c #932F32",
"-. c #9D2C32",
";. c #833335",
":. c #8C3335",
">. c #8A3539",
",. c #823C3D",
"<. c #8E3A3C",
"1. c #963336",
"2. c #9C3337",
"3. c #953639",
"4. c #913A3C",
"5. c #9C3D3C",
"6. c #A12223",
"7. c #A5252B",
"8. c #A9262C",
"9. c #B3272E",
"0. c #A32E35",
"q. c #B42C32",
"w. c #A33235",
"e. c #A4323A",
"r. c #AC3739",
"t. c #A13C3B",
"y. c #AE393B",
"u. c #B8343B",
"i. c #B23B3E",
"p. c #9D403E",
"a. c #803E41",
"s. c #953D42",
"d. c #AB3B40",
"f. c #B63E41",
"g. c #BC3D42",
"h. c #854447",
"j. c #924546",
"k. c #9D4346",
"l. c #9B464A",
"z. c #9C4B4D",
"x. c #9D4C52",
"c. c #9B565B",
"v. c #A54B4D",
"b. c #BA4345",
"n. c #B74448",
"m. c #BC4548",
"M. c #A04E55",
"N. c #BE4D52",
"B. c #A45455",
"V. c #AA5556",
"C. c #AD5B59",
"Z. c #B65857",
"A. c #9F5960",
"S. c #A45C64",
"D. c #987173",
"F. c #A7666B",
"G. c #A8787A",
"H. c #B57B7F",
"J. c #C3464A",
"K. c #C34950",
"L. c #C35256",
"P. c #C25559",
"I. c #C5565A",
"U. c #CE5F62",
"Y. c #D2686B",
"T. c #D5686A",
"R. c #D77476",
"E. c #DA7D7D",
"W. c #E07375",
"Q. c #E27B7B",
"!. c #E1817E",
"~. c #BD7F83",
"^. c #AC8687",
"/. c #B48585",
"(. c #BA8487",
"). c #BDA7A7",
"_. c #BCA8A7",
"`. c #BAA7A8",
"'. c #BCA8A8",
"]. c #C28589",
"[. c #C38B8D",
"{. c #DF8181",
"}. c #CA908F",
"|. c #C59292",
" X c #CD9495",
".X c #CA9899",
"XX c #E08382",
"oX c #C0A7A7",
"OX c #D6BBBE",
"+X c #DABBBC",
"@X c #DBBFC0",
"#X c #CCC5C6",
"$X c #D2C5C5",
"%X c #DDC3C4",
"&X c #D6CDCD",
"*X c #DCD2D2",
"=X c #E0C7CA",
"-X c #E2CBCC",
";X c #E9E9E7",
":X c #EAEBEC",
">X c #EBECEC",
",X c #ECEDED",
"<X c #EEEDF0",
/* pixels */
";X;X:X;X:X;X;X:X;X;X:X;X:X;X;X:X;X;X:X;X;X;X;X:X;X;X:X;X:X:X;X:X:X;X:X:X:X:X:X:X:X;X;X;X;X:X;X;X:X;X;X:X;X;X;X;X:X;X;X;X;X;X;X;X",
";X;X;X;X;X;X;X;X:X;X;X;X;X;X;X;X;X;X;X:X;X;X:X;X;X:X;X:X:X;X:X;X;X;X;X:X;X;X;X;X;X;X;X;X;X;X;X;X;X;X;X;X;X;X;X;X;X;X;X;X;X;X;X:X",
";X;X;X;X;X;X;X:X;X;X;X;X;X;X;X;X;X;X:X;X;X;X;X;X;X;X:X;X;X:X;X:X;X;X;X;X;X:X;X;X;X;X;X;X;X;X;X;X;X;X;X;X;X;X;X;X;X;X;X:X;X;X;X;X",
";X;X;X;X;X;X;X;X;X;X;X;X;X;X;X;X;X;X;X;X;X;X;X;X;X;X;X;X;X;X:X:X;X;X;X;X;X;X;X;X;X;X;X;X;X;X;X;X;X;X;X;X;X;X;X;X;X;X;X;X;X;X;X;X",
":X;X;X;X;X;X;X;X:X;X;X:X;X;X;X;X;X;X;X>X>X>X>X:X>X>X>X,X>X>X>X>X:X>X>X,X>X>X>X>X>X,X:X:X,X;X;X;X;X;X;X;X;X;X;X;X;X:X;X;X;X;X;X:X",
";X;X;X;X:X;X;X:X;X;X;X;X;X;X;X:X;X:X*X.X|.|.}. X X X X X.X.X X X X|.[.[.(.(././././.^.^.^.&X>X;X:X;X:X:X;X;X;X;X:X:X;X:X;X:X;X;X",
":X;X;X;X;X;X;X;X;X;X;X;X;X;X;X;X;X>X+XZ.I.L.K.J.g.u.u.q.q.8.8.7.} { ` _ ) ) ~ Q W W r g a ).,X;X;X;X;X;X:X;X;X;X;X;X;X;X;X;X;X;X",
";X;X;X;X;X;X;X;X;X;X;X;X;X;X;X;X;X>X%XL.n.s.s.4.>.:.O...| c k j g g y y y u t t 6 < 6 ..h ).,X;X;X;X;X;X:X;X;X;X;X;X;X;X;X;X;X;X",
";X;X;X;X:X;X;X:X;X;X;X;X;X;X;X:X;X>X=XU.&.% & % * * * % % $ $ # # # # X X X X X O . 5 %.g ).,X;X;X;X;X:X;X:X;X;X:X;X;X:X;X;X;X;X",
":X;X;X;X;X;X;X;X;X;X;X:X;X;X;X;X;X>X=XT.2..   & * * * % % % $ $ # # # # X X X % X . i -.g ).,X;X;X:X;X;X:X;X;X:X;X;X;X;X;X;X;X,X",
";X;X;X;X;X;X;X;X;X;X;X;X;X;X;X:X;X>X-XW.w.O @ l F j g g y y w w q q < < < , , u 1 > ^ -.g '.,X;X;X;X;X;X;X;X;X;X;X;X;X;X;X;X;X;X",
";X;X;X;X:X;X;X;X;X;X;X;X;X;X;X;X;X>X-XW.w.O ; J s.-.%.+. . .| ' ^ k h h s s y C y q [ w.g '.,X;X;X;X;X;X;X;X;X;X;X;X;X:X;X;X;X;X",
",X;X;X;X;X;X;X;X:X;X;X:X;X;X;X;X;X>X-XQ.t.o 3 :.;.S ....S S j.=.+.M u t t t a ,.h 0 @.w.h ).,X;X;X;X;X;X:X;X;X;X;X;X;X;X;X;X;X:X",
";X;X:X;X:X;X;X;X;X;X;X;X;X;X;X;X;X:X-XQ.t.@ 4 3.U H.P.P.Z.l.F.2.+.G 4.! h d D x.W e @.w.h ).,X;X:X;X;X:X;X;X;X;X:X;X;X:X;X;X;X;X",
";X;X;X;X;X;X;X;X;X;X;X;X;X;X;X;X;X:X-XQ.t.@ 4 4.R .XL.f.i.S S.2.+.L C.] ~ d B x.W e @.0.h ).,X;X;X;X;X;X;X;X;X;X;X;X;X;X;X;X;X;X",
":X;X;X;X;X;X;X;X;X;X;X;X;X;X;X;X;X>X-X!.t.@ 4 4.h..XL.b.i.S S.w.$.L C./ ~ d B M.d e @.0.h ).,X;X;X;X;X;X:X;X;X;X;X;X;X;X;X;X;X:X",
";X;X;X;X;X;X;X:X;X;X:X;X:X;X;X:X;X;X-X!.t.@ 4 4.h..XL.b.f.S S.e.$.L C./ ~ d B M.d e 6.0.h oX>X;X:X;X;X;X;X;X;X;X:X;X;X:X;X;X;X;X",
";X;X;X;X;X:X:X;X;X;X;X;X;X;X;X;X;X>X-X{.t.@ 4 4.a. XP.m.f...S.e.$.L C./ ~ d B M.h e 6.0.h ).>X;X;X;X;X;X:X;X;X:X;X;X;X;X;X;X;X:X",
";X;X;X;X;X;X;X;X;X;X;X:X;X;X;X;X;X>X-X{.p.@ 4 4.,.|.P.m.f...S.e.$.L C./ ~ d B x.h e @.0.h ).,X;X;X;X;X;X;X;X;X;X;X;X;X;X;X;X;X;X",
";X:X:X;X:X;X;X:X;X;X;X;X;X;X;X;X;X>X-XXXp.@ 4 4.,.|.P.m.f...S.e.$.L C.] ~ d B x.h e @.w.h '.,X;X;X;X;X;X;X;X;X;X:X;X;X;X;X;X;X;X",
":X;X:X:X;X;X;X;X;X;X;X:X;X;X;X;X;X>X-XXXk.o 4 4.U |.P.m.f...S.e.$.L C.] ~ d B x.h r @.w.h ).,X;X;X;X;X;X:X;X;X;X;X;X;X;X;X;X;X:X",
";X;X;X;X;X;X;X;X;X;X;X;X;X;X;X;X;X>X-XXXs.o 4 <.U [.P.m.f...S.e.$.L V.] ~ d B x.h e @.e.h ).,X;X;X;X;X;X;X;X;X;X;X;X;X;X;X;X;X;X",
";X;X;X;X:X;X;X;X;X;X;X;X:X;X;X:X;X>X-XXXs.o 4 <.U [.L.m.f.S S.e.$.L V.] ~ d N x.d e @.e.h ).,X;X;X;X;X;X;X;X;X;X;X;X;X;X;X;X;X;X",
":X;X;X;X;X;X;X;X;X;X;X:X;X;X;X;X;X>X-X{.5.o 4 <.U [.N.b.i.S S.e.$.L V.] ~ d N x.h e @.e.h ).,X;X;X;X;X;X:X;X;X:X;X;X;X;X;X;X;X:X",
";X;X;X;X:X;X;X;X;X;X;X;X;X;X;X:X;X>X-X{.p.O 4 <.U [.N.b.i.S S.w.$.H B.] ~ d N x.h e @.0.h '.,X;X:X;X;X;X;X;X;X;X:X;X;X:X;X;X;X;X",
";X;X;X;X;X;X;X;X;X;X;X;X;X;X;X;X;X,X-X{.p.O 4 <.U ].N.b.y.S S.w.$.H B.] ~ d N x.h e @.0.h ).,X;X;X;X;X;X;X;X;X;X;X;X;X;X;X;X;X;X",
":X;X;X:X;X;X;X;X;X;X;X;X;X;X;X;X;X>X-XE.5.O 4 >.I ].N.f.y.S A.0.%.V B./ ! d m x.h e @.0.h ).,X;X;X;X;X;X:X;X;X:X;X;X;X;X;X;X;X:X",
";X;X;X;X;X;X;X;X;X;X;X;X;X;X;X:X;X>X-XE.5.O 3 >.I ].m.i.r.C c.0.%.V v.^ ! r m z.h e @.-.h '.,X;X;X;X;X:X;X;X:X;X:X;X;X;X;X;X;X;X",
":X;X;X;X;X:X:X;X:X;X;X:X;X;X;X;X;X>X=XE.3.O 3 >.I (.n.y.w.C c.-.%.V v.^ ! r m l.d e @.-.g ).,X;X;X;X;X;X;X;X;X;X;X;X;X;X;X;X;X:X",
":X;X;X;X;X;X;X;X;X;X;X;X;X;X;X;X;X>X=XR.3.O 3 ;.P ~.n.r.w.C c.-.+.V v.^ W s m l.d 0 { -.g ).,X;X;X;X;X;X;X;X;X;X;X;X;X;X;X;X;X;X",
";X;X;X;X:X;X;X:X;X;X;X;X;X;X;X;X;X>X=XR.3.O 3 ;.P H.d.0.&.M c.&. .B l.k d y m k.d 0 { -.g '.,X;X:X;X;X;X;X;X;X;X;X;X;X;X;X;X;X;X",
",X;X:X:X;X:X;X;X:X;X;X;X;X;X;X;X;X>X%XY.1.O 3 J J c.*.J J P B.%. .N S u t 2 A k.d 0 ` -.g ).,X:X;X:X;X;X:X;X;X;X;X;X;X;X:X;X;X:X",
";X;X;X;X;X;X;X;X;X;X;X;X;X;X;X;X;X:X%XT.1.- E G.S.F.x.k.l.z.k.%.X...] / ~ W ^ O.d 0 ` -.g ).,X;X;X;X;X;X;X;X;X;X;X;X;X;X;X;X;X;X",
";X;X;X;X:X;X;X:X;X;X;X;X;X;X;X;X;X:X%XU.=.= T E h.j.O.] / / / / / ~ ! W d d d k d 0 ` $.g ).,X;X;X;X;X;X;X;X;X;X;X;X:X;X;X;X;X;X",
":X;X;X;X;X;X;X;X;X;X;X;X;X;X;X;X;X>X%XI.O.. v K a C C C A S | ~ ~ ~ ! W W d d k d 0 ` $.g ).,X;X;X;X;X;X;X;X;X;X;X;X;X;X;X;X;X,X",
";X;X;X;X:X;X;X;X;X;X;X;X;X;X;X;X;X>X%XI.X.. v K K Y : : : Y j.~ ~ ! W W d d d k s 9 ` $.g '.,X;X:X;X;X;X;X:X;X;X:X;X;X;X;X;X:X;X",
";X;X;X;X;X;X;X;X:X;X;X:X;X;X;X;X;X>X%XK.X.. & p P T n n n T j.~ ! W W d d d d h s 9 _ $.g _.,X;X;X;X;X;X;X;X;X;X;X;X;X;X;X;X;X;X",
":X;X;X;X;X;X;X;X:X;X;X:X;X;X:X;X;X>X@XJ. .. & p | O.X.......^ W W W W W W d d h s 9 ( { g ).,X;X;X;X;X;X;X;X;X;X;X;X;X;X;X;X;X:X",
";X;X;X;X;X;X;X;X;X;X;X;X;X;X;X;X;X>X@Xg.' . & p S ....| | | ..X.| ^ k f g s s k s 9 ( [ g '.,X;X:X;X;X;X;X:X;X;X;X;X;X:X;X;X:X;X",
",X;X;X;X;X;X;X;X;X;X;X;X;X;X;X;X;X>X+Xu.' . & u p D *.F A M X./ ^ 7 t t t < u  .e 9 ( _ y `.,X;X;X;X;X;X;X;X;X;X;X;X;X;X;X;X;X:X",
":X;X;X;X;X;X;X;X;X;X;X;X;X;X;X;X;X>X+Xu.^ . & u 6 3.t.2.1.a +.Q W 5  .~ W e u +.e 9 Q _ g `.,X;X;X;X:X;X;X;X;X;X;X:X;X;X;X;X;X;X",
";X;X;X;X:X;X;X:X;X;X;X;X;X;X;X;X;X>X+Xq.^ . & u 6 #.~ W W 8 [ Q W 6 ] d r 9 6 +.e 8 Q ( g '.,X;X:X;X;X;X;X;X;X;X;X;X;X;X;X;X;X;X",
",X;X;X;X;X;X;X;X;X;X;X;X;X;X:X;X;X>X+Xq.^ . & t 6 +.~ W W 8 ` Q W 6 / d r 9 6 _ 9 8 Q ( s `.,X;X;X;X;X;X;X;X;X;X;X;X;X;X;X;X;X:X",
";X;X;X;X:X;X;X;X;X;X;X;X;X;X;X;X;X>X+X9.h . & t < ] ~ ! W 8 _ Q W 2 ^ d d 9 2 / w 8 Q ( y `.,X;X;X;X;X;X;X;X;X;X;X;X;X;X;X;X;X;X",
";X;X;X;X;X;X;X:X;X;X;X;X;X;X;X;X;X>X+X9.h . @ q < ^ ~ ! W < ) W h < ! s s 9 1 / w 8 Q Q y _.,X;X:X;X;X;X;X;X;X;X;X;X;X;X;X;X;X;X",
":X;X;X;X;X;X:X;X;X;X;X;X;X;X:X;X;X>X+X8.h   @ 2 < ! ~ ! h < ~ W h < ! s s 9 1 / w 8 W Q y _.,X;X;X;X;X;X:X;X;X:X;X;X;X;X;X;X;X,X",
";X;X;X;X;X;X;X;X;X;X;X;X:X;X;X:X;X>X+X8.g   & 6 < ! ~ ! h < ~ W d , W s s 9 , / w < W Q y _.,X;X:X;X;X:X;X;X;X;X:X;X;X:X;X;X;X;X",
";X;X;X;X;X;X;X;X;X;X;X;X;X;X;X;X;X>X+X7.g   & 6 2 d ! h h < ~ W h 1 h s s 8 , / w < W ~ y _.,X;X;X;X;X;X;X;X;X;X;X;X;X;X;X;X;X:X",
":X;X;X;X;X;X;X;X;X;X;X;X;X;X:X;X;X,X+X7.g . & 6 2 h ! h h 2 / W h 5 k s s t , / y < W ~ i `.,X;X;X;X;X;X:X;X;X:X;X;X;X;X;X;X;X:X",
";X;X;X;X;X;X;X;X;X;X;X;X;X;X;X:X;X>X+X7.j . & u 2 h ^ ^ k 6 / ! h 5 k g g t 5 ] y 2 W / i '.,X;X;X;X;X;X;X;X;X;X;X;X;X:X;X;X;X;X",
":X;X;X;X;X;X;X;X;X;X;X:X;X;X;X;X;X,X+X7.j . - p 6 g ^ k k 6 ^ ^ k 5 x j g u 5 | i 2 d / i `.,X;X;X;X;X;X:X;X;X;X;X;X;X;X;X;X;X:X",
";X;X;X;X;X;X;X;X;X;X;X;X;X;X;X;X;X,X+X0.j O - p 7 S F D D D X.' c 7 z p u 6 p ..i t d ] a '.,X;X;X;X;X;X;X;X;X;X;X;X;X;X;X;X;X;X",
";X;X;X;X:X;X;X:X;X;X;X;X;X;X;X;X;X>XOXe.Z + ; m A j.z.z.z.z.:.' c x c h d s d c j 6 d  .x '.,X;X;X;X;X;X;X;X:X;X;X;X;X;X;X;X;X;X",
":X;X;X;X;X;X;X;X;X;X;X:X;X;X;X;X;X>XOXe.S + ; m S ..............| | | Z Z k k j j 6 s X.x '.,X;X;X:X;X;X:X;X;X;X;X;X;X;X;X;X;X,X",
";X;X;X;X;X;X;X;X;X;X;X;X;X;X;X;X;X>XOXt.S + ; m S o.o.o.o.......| | | Z Z Z Z j a 6 s X.x '.,X;X;X;X;X;X;X;X;X;X;X;X;X;X;X;X;X;X",
";X;X;X;X;X;X;X;X;X;X;X;X;X;X;X;X;X>XOXt.S + - b C S | | | | | | Z c c c c c k j a 6 s X.C '.,X;X;X;X;X;X;X;X;X;X;X;X;X;X;X;X;X;X",
":X;X;X;X;X:X:X;X;X;X;X;X;X;X;X;X;X>XOX2.S - v K L I I I I ;.J J J J J F J J F D V b j | M '.,X;X;X:X;X;X;X;X;X;X;X;X;X;X;X;X;X,X",
";X;X;X;X;X;X;X:X;X;X;X;X:X;X;X:X;X>XOX=.C D.#X#X$X$X$X$X$X$X$X$X$X$X$X$X$X$X$X$X$X#XG.c a '.,X;X:X;X;X:X;X;X;X;X>X;X;X:X;X;X;X;X",
";X;X;X;X;X;X;X;X;X;X;X;X;X;X;X;X;X>X*X~.^.&X<X,X,X>X>X:X>X:X>X>X:X:X:X>X>X>X,X:X:X,X&X^.D.#X>X;X;X;X;X;X;X;X;X;X;X;X;X;X;X;X;X;X",
":X;X;X;X;X;X;X;X;X;X;X;X;X;X;X;X;X;X;X:X>X:X:X;X;X;X;X;X;X;X;X;X;X;X;X;X;X;X;X:X;X;X;X,X:X;X;X;X;X;X;X;X;X;X;X;X;X;X;X;X;X;X;X:X",
";X;X;X;X;X;X;X;X;X;X;X;X;X;X;X:X;X;X;X;X;X;X;X;X;X;X:X;X;X;X;X;X;X;X;X;X;X:X:X:X;X;X;X;X;X:X;X;X:X;X;X;X;X:X;X;X;X;X;X;X;X;X;X;X",
":X;X;X;X;X;X;X;X;X;X;X:X;X;X:X;X;X;X;X;X;X;X;X;X;X;X;X:X;X;X:X;X;X;X;X;X:X;X;X;X;X;X;X;X;X;X;X;X;X:X;X;X:X;X;X:X;X;X;X;X;X;X;X:X",
";X;X;X;X;X;X;X;X;X;X;X;X;X;X;X;X;X;X;X;X;X;X;X;X;X;X;X:X:X:X;X:X;X;X;X:X;X;X;X;X;X;X;X:X;X;X;X;X;X;X;X;X;X;X;X;X;X:X;X;X;X;X;X;X",
";X:X;X;X:X;X;X;X;X;X;X;X:X;X;X:X;X;X;X;X;X;X;X:X;X;X:X:X:X:X;X:X:X;X:X:X;X:X;X;X;X;X:X:X;X:X;X;X;X;X:X:X;X;X;X;X:X;X;X:X;X;X:X;X"
};
