/* XPM */
static char *_96528c55eb44067ce0bf7a8552506a3oIgNwSn3JjViuffD[] = {
/* columns rows colors chars-per-pixel */
"64 64 18 1 ",
"  c #C0D470",
". c black",
"X c #663931",
"o c #522727",
"O c #847E87",
"+ c #222034",
"@ c #696A6A",
"# c #595652",
"$ c #60342E",
"% c #AF7458",
"& c #99624C",
"* c #935D49",
"= c #EEC39A",
"- c #D09B77",
"; c #87954F",
": c #8B5745",
"> c #804E3F",
", c #7A493C",
/* pixels */
"                              ....                              ",
"                            ..XXXX..                            ",
"                          ..XoXXXXoX..                          ",
"                        ..XoXoXXXXoXoX..                        ",
"                      ..XXXoXoXXXXoXoXXX..                      ",
"                    ..XoXXXoXoXXXXoXoXXXoX..                    ",
"                  ..XXXoXXXoXoXXXXoXoXXXoXXX..                  ",
"                ..XoXXXoXXXoXoXXXXoXoXXXoXXXoX..                ",
"              ..XXXoXXXoXXXoXoXXXXoXoXXXoXXXoXXX..              ",
"            ..XoXXXoXXXoXXXoXoXXXXoXoXXXoXXXoXXXoX..            ",
"          ..XXXoXXXoXXXoXXXoXoXXXXoXoXXXoXXXoXXXoXXX..          ",
"        ..XoXXXoXXXoXXXoXXXoXoXXXXoXoXXXoXXXoXXXoXXXoX..        ",
"      ..XXXoXXXoXXXoXXXoXXXoXoXXXXoXoXXXoXXXoXXXoXXXoXXX..      ",
"    ..XoXXXoXXXoXXXoXXXoXXXoXoXXXXoXoXXXoXXXoOOOOOOOOOXXoX..    ",
"  ..XXXoXXXoXXXoXXXoXXXoXXXoXoXXXXoXoXXXoXXXoO.+++++.OXXoXXX..  ",
" .XoXXXoXXXoXXXoXXXoXXXoXXXoXoXXXXoXoXXXoXXXoO..+++..OXXoXXXoX. ",
".XXoXXXoXXXoXXXoXXXoXXXoXXXoXoXXXXoXoXXXoXXXoO.......OXXoXXXoXX.",
".XXoXXXoXXXoXXXoXXXoXXXoXXXoXoXXXXoXoXXXoXXXoOOOOOOOOOXXoXXXoXX.",
".XXoXXXoXXXoXXXoXXXoXXXoXXXoXoXXXXoXoXXXoXXXo@@@@@@@@#XXoXXXoXX.",
".XXoXXXoXXXoXXXoXXXoXXXoXXXoXoXXXXoXoXXXoXXXoOOOOOOOO@XXoXXXoXX.",
".XXoXXXoXXXoXXXoXXXoXXXoXXXoXoXXXXoXoXXXoXXXoOOOOOOOO@XXoXXXoXX.",
".XXoXXXoXXXoXXXoXXXoXXXoXXXoXoXXXXoXoXXXoXXXo##@@@@@@#XXoXXXoXX.",
".XXoXXXoXXXoXXXoXXXoXXXoXXXoXoXXXXoXoXXXoXXXoo@@OOOOO@XXoXXXoXX.",
".XXoXXXoXXXoXXXoXXXoXXXoXXXoXoXXXXoXoXXXoXXXoXoo@@OOO@XXoXXXoXX.",
".XXoXXXoXXXoXXXoXXXoXXXoXXXoXoXXXXoXoXXXoXXXoXXXoo####XXoXXXoXX.",
".XXoXXXoXXXoXXXoXXXoXXXoXXXoXoXXXXoXoXXXoXXXoXXXoXoo@@XXoXXXoXX.",
".XXoXXXoXXXoXXXoXXXoXXXoXXXoXoXXXXoXoXXXoXXXoXXXoXXXooXXoXXXoXX.",
".XXoXXXoXXXoXXXoXXXoXXXoXXXoXoXXXXoXoXXXoXXXoXXXoXXXoXXXoXXXoXX.",
".XXoXXXoXXXoXXXoXXXoXXXoXXXoXoXXXXoXoXXXoXXXoXXXoXXXoXXXoXXXoXX.",
".XXoXXXoXXXoXXXoXXXoXXXoXXXoXoXXXXoXoXXXoXXXoXXXoXXXoXXXoXXXoXX.",
".XXoXXXoXXXoXXXoXXXoXXXoXXXoXooooooXoXXXoXXXoXXXoXXXoXXXoXXXoXX.",
".XXoXXXoXXXoXXXoXXXoXXXoXXXooooooooooXXXoXXXoXXXoXXXoXXXoXXXoXX.",
".XXoXXXoXXXoXXXoXXXoXXXoXXooooXXXXooooXXoXXXoXXXoXXXoXXXoXXXoXX.",
".XXoXXXoXXXoXXXoXXXoXXXoooooX$XXXX$XoooooXXXoXXXoXXXoXXXoXXXoXX.",
".XXoXXXoXXXoXXXoXXXoXXooooXXX$XXXX$XXXooooXXoXXXoXXXoXXXoXXXoXX.",
".XXoXXXoXXXoXXXoXXXoooooXXXXX$%%%%$XXXXXoooooXXXoXXXoXXXoXXXoXX.",
".XXoXXXoXXXoXXXoXXooooX$XXXX%&%%%%&%XXXX$XooooXXoXXXoXXXoXXXoXX.",
".XXoXXXoXXXoXXXoooooXXX$XX%%%&%%%%&%%%XX$XXXoooooXXXoXXXoXXXoXX.",
".XXoXXXoXXXoXXooooXXXXX$%%%%oo%oo%oo%%%%$XXXXXooooXXoXXXoXXXoXX.",
".XXoXXXoXXXoooooXXXXXX%&%%%%XX%XX%XX%%%%&%XXXXXXoooooXXXoXXXoXX.",
".XXoXXXoXXooooX$XXXX%%%&%%%%%XoXXoX%%%%%&%%%XXXX$XooooXXoXXXoXX.",
".XXoXXXoooooXXX$XX%%%%%&%%%%%&XXXX&%%%%%&%%%%%XX$XXXoooooXXXoXX.",
".XXoXXooooXXXXX$%%%%%%%&%%%%%*%XX%*%%%%%&%%%%%%%$XXXXXooooXXoXX.",
".XXoooooXXXXXX%&%%%%%%%&%%%%%&%oo%&%%%%%&%%%%%%%&%XXXXXXoooooXX.",
".oooooX$XXXoooooooooooo&%%%%%&%%%%&%%%%%&ooooooooooooXXX$Xooooo.",
"..oooXX$XXoo====XX====oo%%%%%&%%%%&%%%%%oo====XX====ooXX$XXooo..",
" ...oXXX%%o-----XX-----o%%%%%oooooo%%%%%o-----XX-----o%%XXXo... ",
" ;;..::&%%o-----XX-----o%%%%oo%%%%oo%%%%o-----XX-----o%%&::..;; ",
" ;;;.::&%%ooooooXXoooooo%%%oo%XXXX%oo%%%ooooooXXoooooo%%&::.;;; ",
" ;;;.::&%%oXXXXXXXXXXXXo%%oo%oXXXXo%oo%%oXXXXXXXXXXXXo%%&::.;;; ",
" ;;;.::&%%o=====XX=====o%%o%Xo====oX%o%%o=====XX=====o%%&::.;;; ",
" ;;;.::&%%o-----XX-----o%%oXX=----=XXo%%o-----XX-----o%%&::.;;; ",
" ;;;.::&%%oX----XX----Xo%%oXX------XXo%%oX----XX----Xo%%&::.;;; ",
" ;;;.::&%%ooXXXXooXXXXoo%%oXX------XXo%%ooXXXXooXXXXoo%%&::.;;; ",
" ;;;.::&%%%oooooooooooo&%%oXX%%%%%%XXo%%&oooooooooooo%%%&::.;;; ",
" ;;;.::&%%%%%%%&%%%%%%%&%%oXXooooooXXo%%&%%%%%%%&%%%%%%%&::.;;; ",
" ;;;.::&%%%%%%%&%%%%%%%&%%oXXoXXX-%%Xo%%&%%%%%%%&%%%%%%%&::.;;; ",
" ;;;.::&%%%%%%%&%%%%%%%&%%oXXoXXXXooXo%%&%%%%%%%&%%%%%%%&::.;;; ",
" ;;;.::&%%%%%%%&%%%%%%%&%%oXXoXXXXoXXo%%&%%%%%%%&%%%%%%%&::.;;; ",
"  ;;.::>%%%%%%%&%%%%%%%&%%oXXoXXXXoXXo%%&%%%%%%%&%%%%%%%>::.;;  ",
"    .::,:%%%%%%&%%%%%%%&%%oXXoXXXXoXXo%%&%%%%%%%&%%%%%%:,::.    ",
"    ;.:,:::::::>:::::::>::oooooooooooo::>:::::::>:::::::,:.;    ",
"     ;.....................oooooooooo.....................;     ",
"                          ............                          "
};
