/* XPM */
static char *_ae514d3027c4dddcd9d29336b3c9e07N4vG0jQdv2xlBEu7[] = {
/* columns rows colors chars-per-pixel */
"64 64 217 2 ",
"   c #0D0B0C",
".  c #0D0404",
"X  c #150C0A",
"o  c #180602",
"O  c #1E110A",
"+  c #140E11",
"@  c #151314",
"#  c #1A1719",
"$  c #1C1A1A",
"%  c #1A1415",
"&  c #27190D",
"*  c #331405",
"=  c #251C15",
"-  c #231E1F",
";  c #2C1B15",
":  c #341E13",
">  c #36241B",
",  c #251F21",
"<  c #1F2024",
"1  c #242222",
"2  c #292425",
"3  c #2C2B2B",
"4  c #2B2728",
"5  c #332B2C",
"6  c #392C25",
"7  c #38312C",
"8  c #373636",
"9  c #572E1A",
"0  c #43342C",
"q  c #4F372D",
"w  c #573929",
"e  c #4C3C34",
"r  c #433B39",
"t  c #543E34",
"y  c #603B28",
"u  c #4B413A",
"i  c #55453C",
"p  c #63483D",
"a  c #464443",
"s  c #5C4B42",
"d  c #524948",
"f  c #565354",
"g  c #5E5959",
"h  c #5D5552",
"j  c #695A4D",
"k  c #645B58",
"l  c #755A53",
"z  c #696259",
"x  c #75645A",
"c  c #675E61",
"v  c #656263",
"b  c #6B6464",
"n  c #736B69",
"m  c #7B716A",
"M  c #737373",
"N  c #7D7978",
"B  c #876A5C",
"V  c #98725F",
"C  c #88706B",
"Z  c #837A75",
"A  c #8B7C76",
"S  c #837877",
"D  c #92776C",
"F  c #A47B65",
"G  c #8D827D",
"H  c #9B867B",
"J  c #A38374",
"K  c #A68B7B",
"L  c #7F8384",
"P  c #828282",
"I  c #8C8C8B",
"U  c #968B8B",
"Y  c #958986",
"T  c #9F9184",
"R  c #938F90",
"E  c #969695",
"W  c #9C9594",
"Q  c #9A999A",
"!  c #A38C85",
"~  c #A88F8A",
"^  c #A4938C",
"/  c #AA998F",
"(  c #BA9987",
")  c #A29492",
"_  c #A59C9A",
"`  c #B29E96",
"'  c #ADA29A",
"]  c #B6A39A",
"[  c #A89DA1",
"{  c #A6A4A5",
"}  c #ADAAAB",
"|  c #A9A6A6",
" . c #B2ABAD",
".. c #B7A8A4",
"X. c #AFB0AB",
"o. c #BCB2AE",
"O. c #B3AFB0",
"+. c #B3B2B3",
"@. c #BDB4B2",
"#. c #BEBBBB",
"$. c #BDB8B7",
"%. c #C8A699",
"&. c #D7B39D",
"*. c #C5B5AC",
"=. c #D6B8A8",
"-. c #C4B6B2",
";. c #C2BBBB",
":. c #CBB9B4",
">. c #D8BFB4",
",. c #E5BEAA",
"<. c #CAC2BC",
"1. c #D5C3BB",
"2. c #EDC2AD",
"3. c #E9CBBB",
"4. c #F5CAB4",
"5. c #F6CCBA",
"6. c #FAD2BC",
"7. c #C3BFC0",
"8. c #CCC4C4",
"9. c #CDCBCC",
"0. c #C8C6C5",
"q. c #D3CAC3",
"w. c #DCCBC2",
"e. c #D3CCCC",
"r. c #D3C8C9",
"t. c #DDD3CD",
"y. c #D5D2CD",
"u. c #CECED1",
"i. c #D2CED2",
"p. c #D8CFD2",
"a. c #D4D3D4",
"s. c #DCD4D3",
"d. c #DFD4D8",
"f. c #DCDCDC",
"g. c #DAD9D5",
"h. c #E2CEC4",
"j. c #EACDC1",
"k. c #EACFC8",
"l. c #E5D0C5",
"z. c #E4D2CD",
"x. c #EBD6CA",
"c. c #EDD9CE",
"v. c #E9D7C9",
"b. c #F5D2C2",
"n. c #F4DACC",
"m. c #FCDBCB",
"M. c #F6D8C6",
"N. c #E2D6D2",
"B. c #E5DAD4",
"V. c #E3DCDC",
"C. c #EBDEDB",
"Z. c #E5D7D5",
"A. c #F1DDD2",
"S. c #F4DFD8",
"D. c #FDE2CF",
"F. c #E5E2DE",
"G. c #EAE2DD",
"H. c #F5E1D6",
"J. c #FFE4D3",
"K. c #F9E6DB",
"L. c #FEEADC",
"P. c #F8E6D9",
"I. c #FFF2DE",
"U. c #DEDFE2",
"Y. c #E5DEE0",
"T. c #E9DEE2",
"R. c #DFE3E6",
"E. c #E4E3E3",
"W. c #EBE4E4",
"Q. c #EBE9E5",
"!. c #E5E6E9",
"~. c #EAE7E8",
"^. c #E6EBEB",
"/. c #ECECEC",
"(. c #E7E9E6",
"). c #F1E6E4",
"_. c #F3EAE5",
"`. c #FDECE3",
"'. c #F2ECEC",
"]. c #FBEAEA",
"[. c #EDF1EC",
"{. c #FEF0E7",
"}. c #F4F2ED",
"|. c #FCF3EC",
" X c #FDF9ED",
".X c #EDEDF1",
"XX c #F1EFF1",
"oX c #E6F3F4",
"OX c #EDF3F2",
"+X c #ECF9FA",
"@X c #F6F6F6",
"#X c gray97",
"$X c #F5F5F5",
"%X c #F3F3F3",
"&X c #F9F5F7",
"*X c #FBF5F3",
"=X c #F5F9F4",
"-X c #FEFBF4",
";X c #F5F5FA",
":X c #FAF7F9",
">X c #F6FAF9",
",X c #F5FBFA",
"<X c #F8F8F8",
"1X c #F9F9F9",
"2X c gray98",
"3X c #FBFBFB",
"4X c #F8FAF9",
"5X c #FDFAFA",
"6X c gray99",
"7X c #FDFDFD",
"8X c #FFFDFE",
"9X c #FEFEFE",
"0X c #FFFEFF",
"qX c #FEFFFF",
"wX c white",
"eX c #FEFEFD",
"rX c #FDFCFC",
/* pixels */
"$X%X/.%X<XwXwXwX$X%X~./.$XwXwXwX>XOX^.^.OX>XwXwXwX<X$XXX%X$XwXwXwX$X/.~.~.%X<XwXwXwX<X%X/./.$XwXwXwXwX%X/./.%X<XwXwXwX<X%X/.%X$X",
"%X/./.%X<XwXwXwX%X/.~./.$XwXwXwX>XOX^.^.[.>XwXwX<X%X~.E.E./.&XwXwXwXwX$X%X%X$X<XwXwX<X%X~./.$X<XwXwXwX$X/./.%X$XwXwXwX<X%X/./.%X",
"/././.%X<XwXwXwX%X/././.$XwXwXwX>XOX^.^.^.>XwXwXwXwX$X/.'.&XwXwX&X%X/.~.~.%X<XwXwXwX<X%X~./.$X<XwXwXwX$X%X/.%X%XwXwXwX<X%X/././.",
"%X%X%X$X<X<XwXwX%X%X%X$X$X<XwXwX=X%XOXOXOX=X6XwX$X%X/././.'.%X&XwXwX<X/.~.%X<X<XwX<X$X$X%X%X$X<X<X3X<X$X$X%X$X$XwXwX3X<X$X%X%X%X",
"<X<X<X<X$X$X$X$X$X<X<X<X$X$X$X%X%X=X>X>X<X$X$X%X%X&X5XwXwX5X&X%X$X$X$X%X%X<X<XOX%X%X$X<X<X<X<X$X%X%X$X$X<X<X<X<X$X$X$X$X<X<X<X<X",
"wXwXwX<X$X%X/./.<XwXwXwX<X%X/./.%X>XwXwXwX$X/./.~.XX5XwXwX:X'.~.E.%X<XwXwXwXwX~.~./.$XwXwXwX<X%X~./.%X$XwXwXwX<X/./.%X$X<XwXwXwX",
"wXwXwXwX$X/.~.~.$XwXwXwX<X%X/.~.%X<XwXwXwX$XXX/.5XwXwXwXwXwX5X&X&XwXwX<X<XwX$XE.~./.$XwXwXwX<X%X~.~.%X<XwXwXwX<X~.~./.$XwXwXwXwX",
"wXwXwXwX$X/.~.~.$X<XwXwX<X%X/./.%X<XwXwX<X$X%X$X+.O. .} } }  . .| | | } 0.E.$X%X%X%X%X<XwXwX<X%X~./.%X<XwXwX<X$X~.~./.$XwXwXwXwX",
"<X$X%X$X<X<X$X$X%X%X$X$X$X$X%X$X/./.%XwX5X/.%X/.d - 4 - 5 5 + 2 $ 3 1 # # E.f.<X[.%X$X$X%X%X%X$X%X%X%X$X$X$X$X%X%X$X<X<X$X$X$X3X",
"%X/./.%X<XwXwXwX%X%X/./.%X$X<XwXwX%X~.E.a.wX$X3 $.i.E.a.a.V.V.E.f.E.9.^.f.1 +.<X<X<X$X%X/./.%X$X<X<X$X%X/./.%X$XwXwXwX<X%X/.%X%X",
"~.~.~.%X<XwXwXwX$X/.~.~.%X<XwXwXwXE.V./.wX;.k R @.W.W.Y.d.Z.Y.E.a.%X/.E.f.M v P wXwX$X/.~.~.%X<XwXwX<X%X~.~./.$XwXwXwX<X%X/.~.~.",
"~.~./.%X<XwXwXwX$X/.~.~.$XwXwXwXE.5XwXe.wX} . f.W.&Xp.*X'.V.Y.Y./.0.9.a.0.9.# f wXwX$X/.~./.$X<XwXwX3X%X~.~.%X$XwXwXwX<X$X/./.~.",
"%X$X$X$X$X$X<X<X$X%X%X%X<X<X<X$XwXa.'.5XwX0.r v ;.8. .W.p.p.V.8.a.~.~.+.Q M v N $X$X$X$X$X$X$X$X%X$X<X<X%X%X%X$X<X$X$X$X=X>X$X$X",
"wXwXwX<X$X%X/.%X$X$X<XwX<X$X%X/.E.wXwX%XE.wX'.5 b U  .d.[ r.r._ Y.E I | M 8 I <X/./.$X<XwXwX<X$X/.%X$X<XwX<X<X$X/././.$X<XwXwXwX",
"wXwXwX<X%X/././.%X3XwXwX<X%X/./.~.wX$XwXwX~.&XV.d c  .T.U r.8.U %X| E P 1 a.E.$X~./.$XwXwXwX<X%X/./.%X<XwXwXwX$X/.~./.%X<XwXwXwX",
"wXwXwX<X%X/././.%XwXwXwX$X/./.%XwXE.wXwX5XwXa.wXk r W ).U e.;.) E.Q E I # f.wX!./..X$XwXwXwX$X/.%X/./.$XwXwXwX$X/.~./.%X<XwXwXwX",
"<XwXwX<X%X/./.%X$X<XwXwX<X$X/.~.W.*XwX}.rXrXq.rXh 7 @.B.) :.z.Y t.-.W S - Y.wX/./..X%X<XwX5X*X}.Q./.%X<XwXwXwX<X/./.%X$X<XwXwXwX",
"~./.%X$X<X<XwXwX/./.%X%X<XwXwXwXwX*X}.F.Q.}.Q.-Xz 0 *.:.^ >.k.~ S...U S % e.;X;X;X;X;X$X%X$X*X*XwXwXwX<X$X%X%X%XwXwXwX<X$X%X/./.",
"/././.%X<XwXwXwX<X%X~./.%XwXwXwX5XW.W.*X}.rX-X_.m & i e q ! j.j.t > s j 7 9.&XwXwXwX<X/.~.~.}.-XwXwX<X%X/./.%X<XwXwXwX<X%X/./.%X",
"%X/./.%X<XwXwX<XwX$X~.~.%X<XwXwXwX'.E.5XF.}. Xz e 6 j >.=.j.m.3.n.>.H > ; d ;.wXwXwX<X/.E.Q.%XrXwXwX<X%X~./.$XwX<XwXwX<X%X/.%X$X",
"/.~.~.%X<XwXwXwX%X/./.%X<XwXwXwXwX<XE.%XV.-X}.= j / H m.J %.M.b.B =.>.H ` O U &X5X<X<X%X/./.$X<XwXwXwX<X%X/./.%XwXwXwX<X%X/././.",
"<X$X$X$X$X<X$X$X$X$X<X<X<X$X$X$X/.5XXXwX-XrXQ.= ^  Xx.M.w V 5.4.* ( J.L.|.; T rX'.%X$X$X<X<X$X$X%X$X$X<X<X<X$X$X$X$X$X$X$X<X<X<X",
"wXwXwX<X%X/.~.~.<XwXwXwX$X/.~./..XwXwXwX&X'.<.u T v.D.=.y F 5.4.9 K M.3.] s / ].'.'.%X<XwXwX$X/.~.~./.$XwXwXwX<X~.~.~.%XwXwXwXwX",
"<XwXwX<X%X/./.%X/.<XwXwX$X/.%X$XXXwX2XwXwXrX-XN.j x M.D.&.6.m.4.,.6.J.( p *.`.*X'./.'.<XwXwX$X~.$X/./.$XwXwX<X%X%X/.~.%XwXwXwX<X",
"6XwXwX<X%X/./.%X%X<XwXwX<X%X/..X.X;XwXwX6XF.}.{.s x L.3.J.2.2.m.5.5.I.=.* A.-XG.W.}.~.wXwXwXwX/././.%X<XwXwX<X$X%X/./.%X<XwXwXwX",
">X<X<X<X$X$X$X$X%X$X<X<X<X$X$X$X2X.XwX^.E.rX*X-Xj & K M.2.L.J.2.5.D.( B o l.-X|.*XwX5X<X$X/.<XwX$X$X$X$X<X<X<X$X$X$X%X$X<X<X<X<X",
"%X%X%X$X<XwXwXwX$X%X%X%X$X<XwXwXwXwXf..X>X$XrX<.Y O j 3.b.b.2.5.=.=.J q t / -X-X*X<XwX%X%X%X~.wXwXwX<X$X%X%X%X$X<XwXwX<X$X%X%X%X",
"/.~.~.%X<XwXwXwX$X/.~./.$XwXwXwX;X%X;XwXu.$XrX7 Y -Xw.. D 1.%.%.m.* B  Xh.6 _ }.wXwX%Xf.%XwXQ.<XwXwXwX$X/.~.%X$XwXwXwX<X%X/././.",
"/.~.~.%X<XwXwXwX$X/.~./.$XwXwXwXwXU.R.!.wX#.3 X.g.t.-X..T l C l p =.h.`.).q.h N <XwX<Xa.W.$X/.wXwXwXwX$X/.~.%X$XwXwXwX<X%X/././.",
"%X%X%X$X<X<X<X<X$X$X%X%X$X<X2X2XwX^.wX!.Q L Q g.Q.}.W.N.-.^ ! :.` 1.*X5X;.&X#.b P %XwX/.$X/.}.<X<X<X<X$X%X%X$X<X<X<X<X<X$X%X%X$X",
"<X<X<X<X$X%X%X%X$X<X<X<X;X%X%X%X/.wX/.6XN 8 ^.OX9.Q.*X5X].].].S.5Xz.W.'.W.a.XX+.< f.2XwXwX}.rXQ.}.%X%X$X<XwX<X<X%X%X%X$X<XwXwXwX",
"wXwXwX<X%X/.~./.<XwXwXwX$X/.~./.!.2XwXwXM a (.y.F._.*XZ.rXC.*X*XW.5XC.5XV.V./.Q 4 '.%X$XwX%XwXE.~.~./.$XwXwXwX<X/.~.~.%X<XwXwXwX",
"wXwXwX<X%X/.~./.<XwXwXwX$XOX~./.%XwX%XwXG 0 {.w.c.L.K.-X_.*X_.*X|.`.{.`.`.h.H./ ; _.|.rXwX,X,XoX^.~./.$XwXwXwX<X/.~.~.%X<XwXwXwX",
"<X<X<X<X$X%X%X%X$X<X<X<X$X$X%X%X.XwXwX|.A 0 n.n.3.L.`.|.*XrX5XrX|. X-XH.v.v.L.! : K._.-X6X,X,XoXOX%X%X$X<XwX<X<X%X%X%X$X<XwXwXwX",
"%X%X%X$X<X<X<X<X$X$X%X%X$X<X<X6X.X;X5X].A e h.n.j.L.L.w.z.e.8.q.q.q.K.L.v.x.P.K > `._.}.6X+XoX+X,X<X<X$X%X%X$X<X<X<X<X<X$X%X%X$X",
"/.^.~.%X<XwXwXwX$X/.~./.$XwXwXwX6X.X~.5XZ i A.x.l.L.A.] <.@.$.@.q.' 1.`.c.l.v.` > |.-XF.^.oXoX,XwXwXwX$X/.~.%X$XwXwXwX<X%X/././.",
"/./.~.%X<XwXwXwX$X/.~./.$XwXwXwXwX.Xf.rXn 0 `.n.h.H.A.*.B.W.rX5X).-.w.`.v.c.l...& `.rXF.f.oXoX,XwXwXwX$X/.~.%X$XwXwXwX<X%X/././.",
"%X%X%X$X<XwXwXwX$X%X%X%X$X<XwXwX2X%XE.wXm e w.H.H.`.|.c.N.G.-X*Xq.t.{.{.x.`.1.! 0 G.rX}.E.,X+X,X6XwX<X$X%X%X%X$X<XwXwX<X$X%X%X%X",
"$X<X<X<X$X$X$X$X%X$X<X<X<X$X$X$X;X;X%XwX@.G A 1.x.H.-X|.-.@.8.;.' B.-X`.w.c.^ C ) W.}.rX%X6XOXOX%X$X$X$X<X<X<X$X$X$X%X$X<X<X<X<X",
"<XwXwX<X%X/./.%X%X<XwXwX<X%X/./.%X%X2X5XrXs.e / ] :.{.-Xo.@.q.8.<._.|.B...] x Z -X*X(.rXrX6XOX,X/./.%X<XwXwX<X$X%X/./.%X<XwXwXwX",
"<XwXwXwX%X~./.$X/.<XwXwX$X/.%X$X.X2XwX%X*XrXN.d o x `.|.|.rXrX*X-XB.-Xt.o 6 ) 5X_.'.*XrXrXrX=X[.%X/./.$XwXwX<X%X%X/./.%X<XwXwXwX",
"wXwXwXwX%X~.~./.<XwXwXwX$X/.~.~.E.5XwXwXwX|.W.G.u G -X|._._.)._.Q._.*Xo.= 8.rX*X'.'.*XrXrXrX=X[.(.~./.$XwXwXwX<X~.~./.%X<XwXwXwX",
"$X$X$X$X$X$X$X$X$X$X<X<X<X$X$X$X;XwX%X%XwX_.W.5Xd m *X-XrX-X|.rX-X-X-Xe.- V.5X'.XX%X*X-X<X=X=X=X%X$X$X<X<X<X$X$X%X$X$X$X$X$X<X<X",
"/.~./.%X<XwXwXwX%X/./.%X<XwXwXwXwXwXE.f.&X5X'.|.d b ).W.{.o.Z U G.G.).V.2 $./.wX5X5X5X$X[.[.}.-XwXwXwX<X%X/./.%XwXwXwX<X%X/././.",
"%X/./.%X<XwXwX<XwX$X~.~.%X<XwXwX$X'.$X/.E.5XwX*Xg b _.s.B.n X = e.s.G.@., i.wXwXwXwX<X}.Q.Q.}.-XwXwX<X%X~./.$XwX<XwXwX<X%X/.%X%X",
"/././.%X<XwXwXwX<X%X~./.%XwXwXwXwXY.'.wXE.%XwXwXf g '.s._.Z O 7 s.F.Q. .$ u.wX.XwXwX<X[.Q.Q.}.-XrXwX<X%X/./.%X<XwXwXwX<X$X%X/./.",
"/./.%X$X<XwXwXwX/./.%X%X<XwXwXwXwX/.W.$X:X$X$X<Xf g *Xe.'.m X 6 q.g.f.0.# i.5XwX2X;X$X$X$X X X XrXwXwX>X$X%X%X%XwXwX<X$X$X%X%X/.",
"wXwX3X<X$X%X%X%X$X<XwXwX<X$X/.~.W.wXwX%XwX:X/.wXf v wXg.*XS X 6 V.rXF.a.+ .X1X.X.X.X%X<XrX-X X}.Q./.%X<XwXwXwX<X%X/./.%X<XwXwXwX",
"wXwXwX<X%X/././.%X6XwXwX%X~./.%XW.<XwXwX:X'.%X5Xg a { { Q k 1 1 I _ | P 1 U.%X!./..X$XwXwXwX=X/./.~.~.$XwXwXwX%X/.~./.%X<XwXwXwX",
"wXwXwX<X%X/././.%X<XwXwX$X/./././.:XwXwX5XXX%X&Xn $ 4   $ $ @ 3 # # $ # @ E.wX<X~./.$XwXwXwX<X%X~.~./.$XwXwX<X$X/.~./.%X3XwXwXwX",
"wXwXwX<X$X%X/.%X%X$X<X<X<X$X%X/.%X:XwXwX5X$X%X&Xf   % X 1 4 @ # - @     8 a.E.E./.%X$X<XwXwX<X$X~./.$X<X<X<X$X$X/././.$X<XwXwXwX",
"%X$X$X$X$X$X<X<X$X%X%X%X<X<X<X$X<X&X$X%X&X&X5X5XE.#.e.9.9.9.7.0.u.9.9.+.0.wXwXwX<X$X$X$X$X$X<X<X%X$X<X<X%X%X%X$X<X$X$X$X$X>X$X$X",
"~.~./.%X<XwXwXwX$X/.~.~.$XwXwXwXwX$X/.~.XX<XwXwXwX<XwXwX'.<XwXwX<XwXwX~./././.wXwXwX$X/./.%X$X<XwXwXwX$X~.~.%X$XwXwXwX<X$X/./.~.",
"~.~.~.%X<XwXwXwX$X/.~.~.%X<XwXwXwX$X~.~./.:XwXwX<X/.E.$X~.wX5X:XwXwX$X~.$X%X$XwXwXwX<X/.~./.$X<XwXwX<X%X~.~.%X$XwXwXwX<X%X/.~.~.",
"%X/./.%X<XwXwXwX$X%X/.%X%X<X<XwX<X$X/./.%X$X<XwXwXwXf.~.g.<XwXwXwX<X~.%X~.%X$X$XwXwX<X$X%X%X$X<XwX<X$X%X%X%X%X$XwXwXwX<X%X/.%X%X",
"<X$X%X$X<X<X$X$X%X$X$X$X$X$X$X$X$X$X$X$X$X$X$X%X/.wX$XwX~.$X$X/.$X<X%XwX~.%X<X<X%X$X<X<X$X$X$X<X$X$X$X$X=X$X$X$X%X$X<X<X$X$X$X<X",
"wXwXwXwX$X/.~.~.$X<XwXwX<X%X/./.%X<XwXwX<X%XOX%X%X$X<XwXwX<X%X/./.%X<XwXwX<X$X%X%X%X%X<XwXwX<X%X~./.%X<XwXwX<X$X~.~./.$XwXwXwXwX",
"wXwXwXwX$X/.~.~.$XwXwXwX<X%X/.~.%X<XwXwX6X%X/.~./.$XwXwXwX<X%X~.~.%X<XwXwXwX$X/.~./.$XwXwXwX<X%X~.~.%X<XwXwXwX<X~.~./.$XwXwXwXwX",
"wXwXwX<X$X%X/./.<XwXwXwX<X%X/./.%X<XwXwXwX%X/.~./.%X3XwXwX<X%X^.~.%X<XwXwX<X%X/.~./.$XwXwXwX<X%X~./.%X$XwXwXwX<X/./.%X$X<XwXwXwX",
"<X<X<X<X$X$X$X$X$X<X<X<X$X$X$X%X$X>X<X3X<X$X%XOX%X$X<X3X3X>X%X%X%X$X<X<X<X<X$X%X%X%X$X<X<X<X<X$X%X%X$X$X<X<X<X<X$X$X$X$X<X<X<X<X",
"%X%X%X$X<X<XwXwX%X%X%X$X$X<XwXwX>X%X%XOX%X=X3X6X>X>X%XOXOX%X>X3X<X<X$X%X%X$X<X<XwX<X$X$X%X%X$X<X<X<X<X$X$X%X$X$XwXwX<X<X$X%X%X%X",
"/././.%X<XwXwXwX%X/././.$XwXwXwX<X%X^.^.OX>XwXwXwX>XOX^.^.%X6XwXwXwX%X/./.%X<XwXwXwX<X%X~./.$X<XwXwXwX$X%X/.%X%XwXwXwX<X%X/././.",
"%X/./.%X<XwXwXwX%X/.~./.$XwXwXwX3X%X^.^.OX>XwXwXwX>XOX^.^.%X6XwXwXwX%X/./.%X<XwXwXwX<X%X~./.$X<XwXwXwX$X/./.%X$XwXwXwX<X%X/./.%X",
"$X%X/.%X<XwXwXwX$X%X~./.$XwXwXwX6X%X^.^.%X,X6X6X6X>XOX^.[.%X6XwXwXwX$X/./.%X<XwXwXwX<X%X/./.$XwXwXwXwX%X/./.%X<XwXwXwX<X%X/.%X$X"
};
