/* XPM */
static char *_9abebd1e62648dfb9d9747f7869208eDzgdr9dIf68M2iyK[] = {
/* columns rows colors chars-per-pixel */
"64 64 214 2 ",
"   c #1E1915",
".  c #1B1613",
"X  c #211B16",
"o  c #221E19",
"O  c #28241C",
"+  c #302B1D",
"@  c #292522",
"#  c #2F2C2B",
"$  c #292522",
"%  c #3B2E26",
"&  c #3F3123",
"*  c #313231",
"=  c #3C3D3D",
"-  c #373838",
";  c #2F302F",
":  c #433325",
">  c #493B2A",
",  c #453826",
"<  c #3E4137",
"1  c #4D482E",
"2  c #474B3A",
"3  c #574C32",
"4  c #4C503C",
"5  c #5B5635",
"6  c #5D6038",
"7  c #6B6C3F",
"8  c #3F4041",
"9  c #454546",
"0  c #484847",
"q  c #4E4C49",
"w  c #484848",
"e  c #534E48",
"r  c #4F5149",
"t  c #595F42",
"y  c #53544B",
"u  c #595C4D",
"i  c #565746",
"p  c #545356",
"a  c #5C5857",
"s  c #61584D",
"d  c #635E59",
"f  c #5D6346",
"g  c #656A4C",
"h  c #6E7446",
"j  c #717642",
"k  c #747B44",
"l  c #616451",
"z  c #686A56",
"x  c #6D7353",
"c  c #747D55",
"v  c #727657",
"b  c #736D54",
"n  c #7A6E62",
"m  c #776F68",
"M  c #756C65",
"N  c #777069",
"B  c #7E7D7D",
"V  c #88796B",
"C  c #8A7F72",
"Z  c #7F894B",
"A  c #788249",
"S  c #7A8353",
"D  c #7B8358",
"F  c #7C8753",
"G  c #818D4D",
"H  c #85914F",
"J  c #87984F",
"K  c #878D5D",
"L  c #879651",
"P  c #889751",
"I  c #8B9A55",
"U  c #8E9B5B",
"Y  c #88925D",
"T  c #909E5B",
"R  c #909F55",
"E  c #AB8B59",
"W  c #8EA150",
"Q  c #91A156",
"!  c #96A65A",
"~  c #9DAB5D",
"^  c #A2B25F",
"/  c #8E9465",
"(  c #949E61",
")  c #979E69",
"_  c #8F8071",
"`  c #968777",
"'  c #8C876D",
"]  c #AF9261",
"[  c #99A566",
"{  c #9EA471",
"}  c #9EAA76",
"|  c #A0AD64",
" . c #A4B465",
".. c #AABC65",
"X. c #AABB68",
"o. c #A7AD76",
"O. c #BEA77F",
"+. c #ACB276",
"@. c #B0BD7F",
"#. c #AFC167",
"$. c #AEC068",
"%. c #B2C46A",
"&. c #B6C96C",
"*. c #BACD6E",
"=. c #BDD16F",
"-. c #BFD370",
";. c #C0D470",
":. c #C9D57D",
">. c #C3D679",
",. c #FDCD7F",
"<. c #A79786",
"1. c #B49F89",
"2. c #BCA792",
"3. c #B6B28E",
"4. c #9B9CA8",
"5. c #9FA0AC",
"6. c #ADAEBB",
"7. c #B1B2BF",
"8. c #A0A0AB",
"9. c #CCB49A",
"0. c #D0B69D",
"q. c #E7BD8D",
"w. c #E7BF92",
"e. c #CFBAA2",
"r. c #D7BDA3",
"t. c #BCCB85",
"y. c #BAC0A6",
"u. c #C3C887",
"i. c #C6D687",
"p. c #CCD681",
"a. c #C9D18A",
"s. c #C9D888",
"d. c #CAC694",
"f. c #CEDA9A",
"g. c #D3DC95",
"h. c #D0DD9E",
"j. c #D9D699",
"k. c #D3CF8D",
"l. c #FDCE80",
"z. c #F2C585",
"x. c #FDD086",
"c. c #FED38A",
"v. c #FDD99D",
"b. c #F4D29F",
"n. c #E0DD9D",
"m. c #DFE89D",
"M. c #E0E99E",
"N. c #DECBAA",
"B. c #D4DDA7",
"V. c #DBD9B5",
"C. c #E3C9AD",
"Z. c #E5C8AA",
"A. c #E6D5A3",
"S. c #E9DAAA",
"D. c #EACDB2",
"F. c #E9D2B6",
"G. c #F3D5B4",
"H. c #F4DABD",
"J. c #F9DBBC",
"K. c #F7D8B6",
"L. c #FEDAA2",
"P. c #D6E1A9",
"I. c #DAE4B7",
"U. c #E2EAAE",
"Y. c #E1E9A3",
"T. c #E6E9BA",
"R. c #F5E2BA",
"E. c #FFE0BA",
"W. c #B3B4C2",
"Q. c #BABBC7",
"!. c #C3C4CE",
"~. c #CECDCA",
"^. c #CACCC4",
"/. c #D5DCC0",
"(. c #D1D0CC",
"). c #DDDEDB",
"_. c #D6D6D8",
"`. c #CCCCD1",
"'. c #E5D8C6",
"]. c #F5DDC1",
"[. c #FADEC1",
"{. c #F2DECC",
"}. c #DFE5C8",
"|. c #DCE4C3",
" X c #E6E7C3",
".X c #FFE4C7",
"XX c #FEE3C6",
"oX c #FFE5C9",
"OX c #F8E5CA",
"+X c #E3E8D3",
"@X c #E9ECDC",
"#X c #E7E6DB",
"$X c #FDEBD5",
"%X c #FDEDDB",
"&X c #F5E8DA",
"*X c #EDF2D9",
"=X c #FFF1DF",
"-X c #DCDCE0",
";X c #EAEBE5",
":X c #E3E4E8",
">X c #ECEDED",
",X c #E7E8E9",
"<X c #F4ECE3",
"1X c #EDF0E8",
"2X c #FEF5E1",
"3X c #F7F4EC",
"4X c #EDEEF0",
"5X c #F4F4F3",
"6X c #F7F8F6",
"7X c #FDFBF6",
"8X c #F7F8F8",
"9X c #FDFDF9",
"0X c #F9F7F4",
"qX c #EFF0F1",
/* pixels */
";.;.;.;.;.;.;.;.;.;.;.;.;.;.;.;.;.;.;.;.;.;.;.;.;.;.;.;.;.;.;.;.;.;.;.;.;.;.;.;.;.;.;.;.;.;.;.;.;.;.;.;.;.;.;.;.;.;.;.;.;.;.;.;.",
";.;.;.;.;.;.;.;.;.;.;.;.;.;.;.;.;.;.;.;.;.;.;.;.;.;.;.;.;.;.;.;.;.;.;.;.;.;.;.;.;.;.;.;.;.;.;.;.;.;.;.;.;.;.;.;.;.;.;.;.;.;.;.;.",
";.;.;.;.;.;.;.;.;.;.;.;.;.;.;.;.;.;.;.;.;.;.;.;.;.;.;.;.;.;.;.;.;.;.;.;.;.;.;.;.;.;.;.;.;.;.;.;.;.;.;.;.;.;.;.;.;.;.;.;.;.;.;.;.",
";.;.;.;.;.;.;.;.;.;.;.;.;.;.;.;.;.;.;.;.;.;.;.;.;.;.;.;.;.;.;.;.;.;.;.;.;.;.;.;.;.;.;.;.;.;.;.;.;.;.;.;.;.;.;.;.;.;.;.;.;.;.;.;.",
";.;.;.;.;.;.;.;.;.;.;.;.;.;.;.;.;.;.;.;.;.;.;.;.;.;.;.;.;.;.;.=.%.c y l  .*.;.;.;.;.;.-.-.-.-.;.;.;.;.;.;.;.;.;.;.;.;.;.;.;.;.;.",
";.;.;.;.;.;.;.;.;.;.;.;.;.;.;.;.;.;.;.;.;.;.;.;.;.;.;.;.;.;.;.=.%.c y l  .*.;.;.;.;.=.%.| [ X.-.;.;.;.;.;.;.;.;.;.;.;.;.;.;.;.;.",
";.;.;.;.;.;.;.;.;.;.;.;.;.;.;.;.;.;.;.;.;.-.*.&.&.&.&.&.&.&.&.&.X.c y l | %.&.&.&.&.%.[ z z Y =.;.;.;.;.;.;.;.;.;.;.;.;.;.;.;.;.",
";.;.;.;.;.;.;.;.;.;.;.;.;.;.;.;.;.;.;.;.;.=. .F h c D D D D D D c u q y v D D D D D D D Y (  .=.;.;.;.;.;.;.;.;.;.;.;.;.;.;.;.;.",
";.;.;.;.;.;.;.;.;.;.;.;.;.;.;.;.-.&.X.......F 4 - = 9 9 9 9 9 9 9 9 9 9 w 0 0 0 0 0 y x  .=.-.;.;.;.;.;.;.;.;.;.;.;.;.;.;.;.;.;.",
";.;.;.;.;.;.;.;.;.;.;.;.;.;.;.;.*.L f 4 4 4 2 - * * * * * * * * * = 9 9 9 9 9 9 9 9 r x X.-.;.;.;.;.;.;.;.;.;.;.;.;.;.;.;.;.;.;.",
";.;.;.;.;.;.;.;.;.;.;.;.;.;.;.-.*.S 2 * * * * * * * * * * * * * * = 9 9 9 9 9 9 9 9 q l U  .%.-.;.;.;.;.;.;.;.;.;.;.;.;.;.;.;.;.",
";.;.;.;.;.;.;.;.;.;.;.;.;.;.=.=.*.A 2 * * * * * * * * * * * * * * = 9 9 9 9 9 9 9 9 9 9 9 y h I -.;.;.W W W ;.;.;.;.;.;.;.;.;.;.",
";.;.;.;.;.;.;.;.;.;.;.;.;.;...U S t < * * * * * * * * * * * * - - 9 9 9 9 9 9 9 9 9 9 9 9 y g I W ;.W W W W ;.;.;.;.;.;.;.;.;.;.",
";.;.;.;.;.;.;.;.;.;.;.;.;.;.T f * * * * * * * * * * * * * * - 9 9 9 9 9 9 9 9 9 9 9 9 9 9 u D F J I W W ;.;.;.;.;.;.;.;.;.;.;.;.",
";.;.;.;.;.;.;.;.;.;.;.;.;.;.U t ; ; * * * * * * * - = = = = 8 9 9 9 9 9 9 9 9 9 9 9 9 9 9 q u x g S W ;.;.;.;.;.;.;.;.;.;.;.;.;.",
";.;.;.;.;.;.;.;.;.;.;.;.;.;.T t * ; * * * * * * * y z M m m N N m M M z q 9 9 9 9 9 9 9 9 9 9 9 u A I ;.;.;.;.;.;.;.;.;.;.;.;.;.",
";.;.;.;.;.;.;.W W W ;.;.;.;.T t * ; * * * * ; * * _ 9.C.F.F.F.F.F.C.r.2.d w 9 9 9 9 9 9 9 9 9 9 z [ ;.;.;.;.;.;.;.;.;.;.;.;.;.;.",
";.;.;.;.;.;.;.I W W ;.;.;.;.T t * * * * * * e n _ 9.F.[.XX.X.X.XXXXXH.C.<.` ` ` V d 9 9 9 r l D U X.;.;.;.;.;.;.;.;.;.;.;.;.;.;.",
";.;.;.;.;.;.;.I I W W ;.;.;.T f - * * * ; * n 0.K.J.[.XXXX.X.X.X.X.XXXXXK.G.K.K.r.C q 0 0 f K =.;.;.;.;.;.;.;.;.;.;.;.;.;.;.;.;.",
";.;.;.;.;.;.;.;.;.I W W W ;.$.~ L f < * ; * n 9.G.1._ ` C.[.oX.X.XoX[.N.` _ 1.H.C.3.[ ( ( [ X.-.;.;.;.;.;.;.;.;.;.;.;.;.;.;.;.;.",
";.;.;.;.;.;.;.;.;.;.I W W ;.;.;.*.S 2 * * - n 9.D.V e s e.H.oX.X.XoXH.e.s e _ H.R.n.p.:.>.;.;.;.;.;.;.;.;.;.;.;.;.;.;.;.;.;.;.;.",
";.;.;.;.;.;.;.;.;.;.I W W ;.;.-.*.S 2 * * - n 9.D.V e s e.H.oX.X.XoXH.e.s e _ H.XXR.R.n.:.;.;.;.;.;.;.;.;.;.;.;.;.;.;.;.;.;.;.;.",
";.;.;.;.;.;.;.;.;.;.I W W ;.;.;.=.! S x b V 1.C.K.2.` <.'.&X=X%X%X=X&X'.<.` 2.[.XX.XXXS.p.;.;.;.;.;.;.;.;.;.;.;.;.;.;.;.;.;.;.;.",
";.;.;.;.;.;.;.;.;.;.I I W ;.;.;.-.*.L ( 9.Z.G.[.XX[.].OX3X7X9X9X9X9X7X3XOX].[.XX.X.XR.S.p.;.;.;.;.;.;.;.;.;.;.;.;.;.;.;.;.;.;.;.",
";.;.;.;.;.;.;.;.;.;.;.;.;.;.;.;.;.;.I { d.G.J.XX.X.XoXoX$X%X%X%X%X%X%X$XoX.X.X.X.X.XXXS.p.;.;.;.;.;.;.;.;.;.;.;.;.;.;.;.;.;.;.;.",
";.;.;.;.;.;.;.;.;.;.;.;.;.;.;.;.;.;.I | d.S.H.XX.X.X.X.X.X.X.X.X.X.X.X.X.X.X.X.X.XXXR.S.p.;.;.;.;.;.;.;.;.;.;.;.;.;.;.;.;.;.;.;.",
";.;.;.;.;.;.;.;.;.;.;.;.;.;.;.;.;.;.I Q ~ :.j.R..XoXoX.X.XXXXXXX.X.X.X.X.X.X.XXXG.j.p.:.;.;.;.W W ;.;.;.;.;.;.;.;.;.;.;.;.;.;.;.",
";.;.;.;.;.;.;.;.;.;.;.;.;.;.;.;.;.;.I I I ;.g. X$X$X$XoXK.K.G.G.G.K.K.E.oX$XOXN.d.o.W ;.;.W W W W ;.;.;.;.;.;.;.;.;.;.;.;.;.;.;.",
";.;.;.;.;.;.;.;.;.;.;.;.;.;.;.;.;.;.>.>.>.>.P.@X5X0X0X%XZ.w.q.q.q.z.c.L.=X2X Xp.[ Q W ;.;.W W W ;.;.;.;.;.;.;.;.;.;.;.;.;.;.;.;.",
";.;.;.;.;.;.;.;.;.;.;.;.;.-.;.;.;.f.P.I.T.T.*X3X8X9X7X2Xb.z.z.z.z.l.x.v.2X0X*XI.y.} W W W W W W ;.;.;.;.;.;.;.;.;.;.;.;.;.;.;.;.",
";.;.;.;.;.;.;.;.;.;.;.;.;.;.;.;.>.I.@X5X8X7X7X9X9X9X7X2Xv.x.l.l.l.,.x.v.2X7X0X>X+XB.[ ! W W ;.;.;.;.;.;.;.;.;.;.;.;.;.;.;.;.;.;.",
";.;.;.;.;.;.;.;.;.;.;.;.;.;.;.;.>.I.@X5X9X9X9X9X9X9X7X2Xv.x.,.l.l.,.x.v.2X7X5X>X;X#X^.y.[ W ;.;.;.;.;.;.;.;.;.;.;.;.;.;.;.;.;.;.",
";.;.;.;.;.;.;.;.;.;.;.;.;.;.>.i.s.|.1X5X9X8X9X9X9X9X7X2Xv.x.,.l.l.,.x.v.2X7X5X4X>X:X)./.i.;.;.;.;.;.;.;.;.;.;.;.;.;.;.;.;.;.;.;.",
";.;.;.;.;.;.;.;.;.;.;.;.;.;.f. X>X0X8X9X5XqX0X9X9X9X7X2Xv.x.,.l.l.,.x.v.2X7X5X4X>X:X)./.i.;.;.;.;.;.;.;.;.;.;.;.;.;.;.;.;.;.;.;.",
";.;.;.;.;.;.;.;.;.;.;.;.;.;.h.+XqX8X9X9X5X4X5X9X9X9X7X2Xv.x.,.l.l.,.x.v.2X7X0X4X>X:X)./.i.;.;.;.;.;.;.;.;.;.;.;.;.;.;.;.;.;.;.;.",
";.;.;.;.;.;.;.;.;.;.;.;.;.;.h.+XqX8X9X9X5X4X5X9X9X9X7X2Xv.x.,.l.l.,.x.v.2X7X0X4X>X:X)./.i.;.;.;.;.;.;.;.;.;.;.;.;.;.;.;.;.;.;.;.",
";.;.;.;.;.;.;.;.;.;.;.;.;.;.h.+X5X8X9X9X5X4X5X9X9X9X7X2Xv.x.,.l.l.,.x.v.2X7X5X4X>X:X)./.i.;.;.;.;.;.;.;.;.;.;.;.;.;.;.;.;.;.;.;.",
";.;.;.;.;.;.;.;.;.;.;.;.;.;.h.+X5X8X9X9X5X4X5X9X9X9X7X2Xv.x.,.l.l.,.x.v.2X7X5X4X>X:X)./.i.;.;.;.;.;.;.;.;.;.;.;.;.;.;.;.;.;.;.;.",
";.;.;.;.;.;.;.;.;.;.;.;.;.;.h.+X5X8X9X9X5X4X5X9X9X9X7X2Xv.c.x.x.x.x.c.v.2X7X5X4X>X:X)./.i.;.;.;.;.;.;.;.;.;.;.M.M.;.;.;.;.;.;.;.",
";.;.;.;.;.;.;.;.;.;.;.;.;.;.g. X&X<X2X3XqX>X5X9X9X9X7X#XO.] E E E E ] O.#X8X5X4X,X#X'.V.p.;.;.;.a.M.M.;.;.;.M.M.M.;.;.;.;.;.;.;.",
";.;.;.;.;.;.;.;.;.;.;.;.;.;.k.A.K.[.XXOX<X>X5X9X9X9X0X~.e $ .     . @ e ~.0X6X>X;X{.G.A.:.;.;.;.a.a.M.M.;.M.M.M.M.;.;.;.;.;.;.;.",
";.;.;.;.;.;.;.;.;.;.;.;.;.;.k.A.K.J.XXOX<X>X5X9X9X9X0X(.y $       . O q ~.0X6X>X;X{.G.A.:.;.;.;.;.a.a.M.M.M.M.M.;.;.;.;.;.;.;.;.",
";.;.;.;.;.;.;.;.;.;.;.;.;.;.p.j.S.G.H.OX&X>X5X9X9X9X0X(.y # o o o . @ q ~.0X6X>X;X'.A.j.:.;.;.;.;.;.a.a.M.M.M.;.;.;.;.;.;.;.;.;.",
";.;.;.;.;.;.;.;.;.;.;.;.;.;.>.:.:.j.j.T.@X;X5X9X9X9X0X(.y # X o o . @ q ~.0X6X>X#XB.p.:.;.;.;.;.;.;.a.a.a.M.;.;.;.;.;.;.;.;.;.;.",
";.;.;.;.;.;.;.;.;.;.;.;.;.;.;.;.;.a.M.U.}.;X5X8X9X9X8X).B a p p q # $ q ~.0X6X>X+Xh.;.;.;.;.;.;.;.;.;.;.;.;.;.;.;.;.;.;.;.;.;.;.",
";.;.;.;.;.;.;.;.M.M.;.;.;.;.;.;.;.a.M.U.}.;X5X8X9X9X9X>X!.7.6.6.4.p # q ~.0X6X>X+Xh.;.;.;.;.;.;.;.;.;.;.;.;.;.;.;.;.;.;.;.;.;.;.",
";.;.;.;.;.;.;.;.M.M.;.;.;.;.;.;.;.a.M.U.}.;X5X9X9X9X9XqX!.W.W.7.5.p # q ~.0X6X>X+Xh.;.;.;.;.;.;.;.;.;.;.;.;.;.;.;.;.;.;.;.;.;.;.",
";.;.;.;.;.;.a.M.M.M.M.;.;.;.;.;.;.a.M.U.}.;X5X8X9X9X9XqX!.W.W.7.5.p # q ~.0X6X>X+Xh.;.;.;.;.;.;.;.;.;.;.;.;.;.;.;.;.;.;.;.;.;.;.",
";.;.;.;.;.;.a.a.a.M.M.;.;.;.;.;.;.a.M.U.}.;X4X5X5X8X8X>X!.W.W.7.5.p # q ~.0X6X>X+Xh.;.;.;.;.;.;.;.;.;.;.;.;.;.;.;.;.;.;.;.;.;.;.",
";.;.;.;.;.;.;.;.a.M.M.M.M.;.;.;.;.a.a.f.}.;X>X>X>X>X:X-XQ.W.W.7.5.p # q ~.0X6X>X+XB.;.;.;.;.;.;.;.;.;.;.;.;.;.;.;.;.;.;.;.;.;.;.",
";.;.;.;.;.;.;.;.a.a.a.M.M.;.;.;.;.;.;.s.}.;X>X>X>X_.!.Q.W.W.W.7.5.p # q ~.0X6X>X+Xh.;.;.;.;.;.;.;.;.;.;.;.;.;.;.;.;.;.;.;.;.;.;.",
";.;.;.;.;.;.;.;.;.;.a.M.M.;.;.;.;.;.;.s.}.;X>X>X>X`.Q.W.W.W.W.7.5.p # q ~.0X6X>X@XT.;.;.;.;.;.M.M.M.;.;.;.;.;.;.;.;.;.;.;.;.;.;.",
";.;.;.;.;.;.;.;.;.;.a.M.M.;.;.;.;.;.;.s.|.#X,X,X:X`.Q.7.W.7.W.7.8.p # q ^.1X0X>X@XT.Y.;.;.;.;.M.M.M.;.;.;.;.;.;.;.;.;.;.;.;.;.;.",
";.;.;.;.;.;.;.;.;.;.a.M.M.;.;.;.;.;.-.X.v u r r y / @.d.B.t.t.t.+.t O @ 9 l ' a.f.Y.a.-.;.;.M.M.M.;.;.;.;.;.;.;.;.;.;.;.;.;.;.;.",
";.;.;.;.;.;.;.;.;.;.a.M.M.;.=.&.&.&.&.! 1 O   X O k ^ u.g.&.&.&.^ 6 O X X + 5 ~ +.+.u.a.%.g.g.g.g.=.;.;.;.;.;.;.;.;.;.;.;.;.;.;.",
";.;.;.;.;.;.;.;.;.;.a.a.m.=.#.~ I Q I Z 3 , & & : h H ) o.R Q I H 5 : & & : > 3 3 3 5 b K o.o.I ~ #.=.-.;.;.;.;.;.;.;.;.;.;.;.;.",
";.;.;.;.;.;.;.;.;.;.;.*.%...~ Q L L L A 3 , : : > 7 Z / { L L L Z 5 : : : : : : : : > 5 D { { L Q ~ ..%.*.;.;.;.;.;.;.;.;.;.;.;.",
";.;.;.;.;.;.;.;.;.;.;.&. .Q I I L L L A 3 , : , > 7 G / { L P L Z 5 , & & : : > > > 1 5 A L L L I I Q  .&.;.;.;.;.;.;.;.;.;.;.;.",
";.;.;.;.;.;.;.;.;.;.;.=.&.#.^ Q L L L G k j j j k Z H / { L L L H A j j j j j j j j k A H L L L Q ^ #.&.=.;.;.;.;.;.;.;.;.;.;.;.",
";.;.;.;.;.;.;.;.;.;.;.;.-.-...! L L L L L L L L L L L L L L L L L L L L L L L P P P L L L L L L ! ..-.-.;.;.;.;.;.;.;.;.;.;.;.;.",
";.;.;.;.;.;.;.;.;.;.;.;.;.;...! L L L L P P P P P P L L L L L L L I P P P P P P P P P P L L L L ! ..;.;.;.;.;.;.;.;.;.;.;.;.;.;.",
";.;.;.;.;.;.;.;.;.;.;.;.;.;.;.;.;.;.;.;.;.;.;.;.;.;.;.;.;.;.;.;.;.;.;.;.;.;.;.;.;.;.;.;.;.;.;.;.;.;.;.;.;.;.;.;.;.;.;.;.;.;.;.;.",
";.;.;.;.;.;.;.;.;.;.;.;.;.;.;.;.;.;.;.;.;.;.;.;.;.;.;.;.;.;.;.;.;.;.;.;.;.;.;.;.;.;.;.;.;.;.;.;.;.;.;.;.;.;.;.;.;.;.;.;.;.;.;.;.",
";.;.;.;.;.;.;.;.;.;.;.;.;.;.;.;.;.;.;.;.;.;.;.;.;.;.;.;.;.;.;.;.;.;.;.;.;.;.;.;.;.;.;.;.;.;.;.;.;.;.;.;.;.;.;.;.;.;.;.;.;.;.;.;."
};
