/* XPM */
static char *_5b9a1918390459bce6be008046f9bd3bkWoG0D14hcA9fFj[] = {
/* columns rows colors chars-per-pixel */
"64 64 5 1 ",
"  c #5EBDA0",
". c #49C8A2",
"X c #70D4B6",
"o c #9EE2AC",
"O c #9EE2CE",
/* pixels */
"...XXXXXOOO................XXXXOO ...........XXXXX   ...........",
"...XOOOO  ............XXXXXXOOOO...........XXXXOO  .............",
".....................XXOOOOOO  ..........XXXOOOO ............XXX",
"..ooo................  O  ..........o..XXOOOO  ............XXXXX",
"............XXXXXX..............oooooXXXOO ...............XXXX  ",
"..........XXXXXOXX..........oooo....XXXOO ...............XXX OOO",
"....XXX..XXXOOOO X..................  OO ..........XXXXXXXOOO...",
"..XXXXXXXOOO  ..............XXX ......  .........XXXXXXOOO .....",
"..X OOOOO    .............XXXXO ..............oooooooo  ........",
"..  O     ...............XXOOO ............XXX...      .........",
"....................XXXOOOOO  ............XXX  .................",
".............o.....XXXOOXX  ........XXXXXOOOO ..................",
"...........oo......XXO    .........XXXOOO    ..............ooo..",
".....oooooo........ oo............XX   ...................oX....",
"...................oo.............   ...................XXX ....",
"................................................XXX.XXXXXO  ....",
"...........................o..............oo..XXXXXXOOOOO  .....",
".............XX........oooo.......oo.....o...XXXXOOO    ........",
"....XXXXXX..XXX.................oo.....oo....XX O ..............",
"..XXXXOOXXXOXX .................o......o.....   ................",
".XOOOOOOOOO   ......XXXX.XXX................oo..............oooo",
".     .............XXXXOXXX ..............................oo....",
"........oo........XXXOO     ..........................oooo......",
".................XXOOO ...o..........................o..........",
"...............XXXOO .....o......XXXXXX.........................",
"...............XX   .....o......XXOOX  ..............XXX........",
"...............  ......oo.......XOO   .........XXXXXXOX ......o.",
"......................o.....XXXOO  ...........XXOOOOO   .....o..",
"........XXXX   ......o......XXOO  ...........XXOO    ......oo...",
"......XXXXOO  ......o.......    .........XXXX O ................",
".....XXXOO ..............................  XOO.................X",
"XXXXXOOO .............XX.................. O  .oo.............XX",
"XOOOOO  .........XX..XX .....................oo...........XXXXOO",
"OO  ............XXXXXOO ...................oo...........XXOXOO  ",
"..............ooooXOOO  ......XXXXX.....................  OO  ..",
".......oooooooXXXOO .........XXXXOO.............XXX.............",
".....oo......OOOO ........XXXOOOO ..............XX .............",
"............. .......... XOOO   ...............XXO .............",
"........................ XO   ...........XXXXOOOOO..............",
"......XXX ..............OO  ...........XXXXOOO   ...............",
".XXXXXXXOO...........oooo ............XXXOO   ................XX",
"XXOOOXOOO................oo...........  O  ..................XXO",
"OOO OOO ...oo.....XXX .....ooo..............................XXOO",
"  ........oo...XXXXXO ........oooX........ooo...........XXXXXOO ",
" .............XXXOOO ........XXXO ...........ooooo.....XXXXOO ..",
"............XXXX O ........XXXOOO ..........XX....oo.XXXX O.....",
"...o......XXXOOOO.........XXXOO ...........XO ......XXXOOO......",
"...ooo....  O ..........XXX O .......XXXXOOOX ......  O ........",
"......o...............XXXOOO........XXXOOXXX  ...............XXX",
"............XX .......    ........XXXXO       .............XXXXO",
"..........XXXX ..................XXXOO ..................XXXXOO ",
".........XXX   ..................  O ...............XXXXXXOOO...",
"..XXXXXXOOO .......................................XXXXOOO  ....",
"XXXXXOOOO  ......................................XXXXXO  .......",
"XXXOOO.o................ooo......................XXXOO..........",
"     .oo...................oo....................   ............",
"......o............XXXX.........................................",
".................XXXX  ........XX...........................o...",
".............XXXXXX   ........XXXXXXXOX........oo...........o...",
".........XXXXXX  OO .........XXXX OOO  .....ooo............o....",
".......XXXXXX OOO..........XXXOOOO..................XX....oo..XX",
".......XX OOOOo..........XXXOO  ...............XXOOOO oo.....XX ",
"...XXXXX  ...o..........XXX   o..............XXOO     .oo..XXXOO",
"...XXXXX ...oo..........XX  ...oooo..........XX  ........XXXXO ."
};
