/* XPM */
static char *_f6259435cd84aa283a8e4305cbc5310rZU8U0w1XlDxS1mV[] = {
/* columns rows colors chars-per-pixel */
"64 64 159 2 ",
"   c #476F92",
".  c #4A6E93",
"X  c #4B6F9A",
"o  c #467396",
"O  c #497396",
"+  c #477896",
"@  c #497897",
"#  c #46759B",
"$  c #4A749B",
"%  c #45799C",
"&  c #4C799B",
"*  c #527793",
"=  c #547897",
"-  c #51759C",
";  c #537A9A",
":  c #4575A1",
">  c #4A74A1",
",  c #4578A0",
"<  c #5881A0",
"1  c #579AB7",
"2  c #5696BD",
"3  c #5A97BD",
"4  c #569ABD",
"5  c #5A9BBE",
"6  c #6394BD",
"7  c #619EBE",
"8  c #5CA1BE",
"9  c #64A4BD",
"0  c #5696C1",
"q  c #5A96C1",
"w  c #569BC2",
"e  c #5B9CC3",
"r  c #5A97C9",
"t  c #5699C8",
"y  c #5B9BC9",
"u  c #6097C1",
"i  c #619EC4",
"p  c #629EC9",
"a  c #56A2C3",
"s  c #5DA1C3",
"d  c #5EA8C7",
"f  c #5DA1C9",
"g  c #62A1C0",
"h  c #60A0C2",
"j  c #62A1C3",
"k  c #60A0C1",
"l  c #65A3C2",
"z  c #60A1C4",
"x  c #63A1C5",
"c  c #60A2C4",
"v  c #62A2C5",
"b  c #62A2C4",
"n  c #61A1C7",
"m  c #63A1C6",
"M  c #63A3C6",
"N  c #64A1C6",
"B  c #63A5C5",
"V  c #65A4C5",
"C  c #64A4C6",
"Z  c #64A7C6",
"A  c #63A3C4",
"S  c #69A5C5",
"D  c #64A9C6",
"F  c #69A8C0",
"G  c #67A4CB",
"H  c #64A3C9",
"J  c #6AA4CA",
"K  c #62A9C9",
"L  c #69A8C9",
"P  c #94D5DE",
"I  c #9AD4DF",
"U  c #95DBDE",
"Y  c #94D9DE",
"T  c #9DDADF",
"R  c #96CFE9",
"E  c #93D6E1",
"W  c #96D4E3",
"Q  c #96D6E3",
"!  c #97D3E5",
"~  c #93D5E4",
"^  c #93D4E6",
"/  c #93D7E7",
"(  c #95D4E4",
")  c #95D7E4",
"_  c #97D6E4",
"`  c #94D5E4",
"'  c #9AD7E3",
"]  c #9DD6E0",
"[  c #9AD5E5",
"{  c #9AD7E5",
"}  c #9AD5E4",
"|  c #97DCE0",
" . c #97DAE5",
".. c #95D9E4",
"X. c #9EDAE1",
"o. c #9ED8E3",
"O. c #9ED8E0",
"+. c #9BDCE3",
"@. c #99DAE5",
"#. c #98DAE7",
"$. c #9BDAE7",
"%. c #98D8E4",
"&. c #9CD8E7",
"*. c #9EDAE6",
"=. c #9EDDE7",
"-. c #9CDAE4",
";. c #94D6E9",
":. c #93D6EC",
">. c #95D5EA",
",. c #98D4E8",
"<. c #9BD5E9",
"1. c #97D9E8",
"2. c #95D8E9",
"3. c #9BD9E9",
"4. c #A2D6E4",
"5. c #A0D9E5",
"6. c #A0DCE6",
"7. c #A1D9E4",
"8. c #A1D6ED",
"9. c #A1D9EA",
"0. c #A1D7F1",
"q. c #9EE1EA",
"w. c #BAECE7",
"e. c #BDE6EB",
"r. c #BFEAEE",
"t. c #BEEAEF",
"y. c #BDEBED",
"u. c #BFE7F1",
"i. c #BDE9F1",
"p. c #BFEAF0",
"a. c #BEEBF1",
"s. c #C3ECE7",
"d. c #C3E7EE",
"f. c #C8E7EE",
"g. c #C2EBED",
"h. c #C0E9EE",
"j. c #C2E8EF",
"k. c #C0EAEE",
"l. c #C5EEEF",
"z. c #C6EFEE",
"x. c #C3EAEE",
"c. c #C9EDEE",
"v. c #C4F0ED",
"b. c #CBF0EE",
"n. c #C4E7F2",
"m. c #C0E9F0",
"M. c #C2EAF0",
"N. c #C2EFF1",
"B. c #C6ECF3",
"V. c #C3EBF6",
"C. c #C7EEF6",
"Z. c #C6ECF4",
"A. c #C3ECF2",
"S. c #C9EDF2",
"D. c #C4EEF8",
"F. c #CBEBF8",
"G. c #C4F1F1",
"H. c #C4F0F2",
"J. c #CAF1F3",
/* pixels */
"O O O $ $ .   O 1 e e i ..=.6.[ i e e q $ . . . O O . O q e e q . $ _ } s q $ . X # 5 e q e *.o.i q e t O . . . . @ 5 e w q e e ",
"O O O X $ # O & q e e l ~ 1.1.~ e e e q $ $ @ @ @ @ $ $ 3 5 e q # & [ -.s q > + # $ 3 e z V ,.! s 5 q 3 % O O @ # $ 3 e z z i e ",
"O O O $ 1 q q q 0 e :._ z e s s e e e e 5 q q q w w e 5 @ $ q w 1 e -.-.s 0 3 4 4 5 4 j i.g.V e e q $ $ 5 q q q 4 3 q s m.Z.*.] ",
"$ $ $ % 1 e e e j G >.~ e q e q e e e e e e e e e w e 3 @ $ q e j G _ W z e z z s s e j M.g.j t e 3 $ , q e z z z l e V g.B. .Y ",
"q q q 5 5 e q z t.t.Z e e e e e e e e e e e e q @ O O @ 3 q 0 s g.m.V z W *.Z.g.+.E e e 5.o.s 4 O % 2 3 q j i.H.g.m.-._ Z i e e ",
"y e 5 1 e e e j a.m.V 5 e 4 5 5 5 q q e e e e 5 @ O O $ 3 s i G g.t.i e ~ T B.g.*.~ H l E ;.s 1 O & z z e V y.b.B.V.5.! y q 5 q ",
"e 4 # $ q e e e e H m.g.j 2 $ # # > 3 e e e e e q q q 3 5 i V.t.F s e e s s j z 5 V i.m.d s e e q i n.V.o.E l 7 j z z e @ $ 5 e ",
"w 5 $ $ q e e e e Z m.m.S 7 $ # @ % 5 e q e 5 5 0 q w a e H i.x.s y 3 q r 0 5 5 4 j S.S.H e e e s L m.B.3.~ j 4 t e e 1 # # 5 3 ",
"e 5 $ $ q e 4 s t.y.G V g.e.i 0 0 w e e s 5 $ $ o @ 0 s ~ / V i s q # # # $ 5 s w e 3.-.i q e l i.t.l s e l [ _ 5 5 e w q 2 @ O ",
"y 5 % & 8 s z V y.g.i e S.c.l e z z e e 5 1 $ $ $ $ e V _ ~ e q s 5 > $ # $ 6 5 e e ~ ~ l i q z Z.G.j 0 5 i [ [ l 7 j i l s % O ",
"q q 5 e ~ 5.Z.m.G i q z S.S.e i x.t.s 3 > $ 1 5 5 e ~ >.z 8 e e e e 3 5 5 1 $ $ q e 8 Z _ :.e e *.-.s e e p i S [ *.a.c.c.m.e 2 ",
"s s j V ,.*.Z.g.s t e s m.m.z l x.u.l 5 > $ 3 e e f 3.*.s e e e q q e e e 5 @ $ q e 0 s 5.5.e s -.T i 5 5 3 w j W o.g.c.c.m.L s ",
">.+.B.i.V e j l e e e e s z _ <.H d E E 5 3 3 e t e B.M.s t e e e e e e e e q q e e e z g.B.j f S.B.z 5 $ > q w & % i H z V a.J.",
"..o.Z.i.j 0 3 4 e e e e j j [ [ e w ~ E l s e e e Z g.g.V z e i e e e e 4 5 e y e e e z H.J.z e m.g.Z 5 & # q q @ $ 3 5 w z y.b.",
"s s z z e q $ # q e t z g.g.V 5 8 s s K m.a.i e _ [ l S g.a.H r e e e e $ # 5 q e e 0 z H.H.z e s l W _ 5 2 e q 5 1 & @ e y i z ",
"3 4 4 0 e 5 @ O q e e V g.m.i q e e w p n.B.S l P W e e M.g.L s s e e q > > q e s s s V t.i.z q 2 5 <.,.z e e y 8 5 $ $ 4 3 q 4 ",
"# @ $ $ q e 5 5 q e _ } Z s e e e e e e e l x.n.l e e e i S a.g.j 4 > > 4 5 y s P 7.g.m.F s e q $ $ e z _ _ e e q e q 3 $ $ 5 8 ",
"o # O @ q e e e i H [ [ e 0 5 5 e e e e s Z x.g.e q e e 0 j M.B.j 4 > > q s s l ,.9.S.g.8 0 0 2 # $ 3 e _ [ 9 e s 8 e q @ # 5 e ",
". o 3 5 q q q s ~ E z e e 3 $ # q e 0 i m.V.K s e e e e q p 5.*.e q q 5 0 i t.y.z e 9 z e q $ # 2 3 5 e q H W +.v.y.i 4 5 5 e q ",
"@ @ s z s s e e *.+.s 0 e q $ o q e s S m.y.e 3 6 3 e e e e P E l i y e z S g.i.l e q q z i @ & s s e e s H ,.o.x.m.V e e e e e ",
"W o.B.G.5.E e i g.Z.s 0 e 5 $ o 0 z i.M.L 7 @ @ $ % 3 e e e s Z P _ q i g.M.J l ..:.e e >.o.5 e _ [ e s m.m.l e p d ..;.e q q q ",
"*.*.V.Z.o.E z l m.i.H e e 6 $ @ 5 Z y.a.7 2 $ $ # % 3 e i j q e E _ z l M.a.i y / 1.H l _ >.s s ,.[ z V x.m.V e 0 e :...l 9 f f ",
"s s z l e Z :...l l :.:.i 3 5 8 ~ ~ V e $ $ 6 e w e 0 e } >.e q e 9 } } F z e e p 9 E E l e e e s V y.g.S V x.x.e q w s t.g.*.,.",
"5 5 3 3 q e W Y 4 e *.o.j 5 e s 9.*.s q $ X q a s s s z W _ Z e r y W Y e e q 3 y H -.3.z q e e e s J.c.e e g.m.V z i G x.c.o.} ",
"$ $ O @ w y p p e s v.g.s t q p n.g.j q $ $ 5 s e s W >.s s _ _ i e e s e e $ - 4 z B.S.j e e e e l B.B.H e s S g.S.S.n.J z z z ",
". .   o 3 q 5 q y s y.y.L s e l S.c.l 0 % $ 6 q w s o.o.s s #.-.i y 4 1 1 1 % $ 3 G t.g.j w e e e i B.B.f 0 0 i e.v.S.m.l e e e ",
". . . . $ $ @ $ q e p D M.y.e p J.b.z q 5 5 $ $ 0 s M.B.j e ..W i q # o o $ 2 5 W ~ G z e e e e e j S.H.z q e e s s s l P >.z e ",
"& @ $ $ $ $ O $ 2 q 0 z g.M.S V M.g.j q e q o O 5 f B.c.i e +.-.s 3 $ $ O > e s +.-.q q q e e e e l g.y.l q q q w w 0 e -.*.j w ",
"5 5 5 4 4 1 $ O $ & 5 e i V g.m.S e q q e q o O 2 s H.b.i p Z.B.s 0 5 5 5 q 0 s M.m.; # 3 e e e ! W S i e 5 $ $ 5 e 0 e -.*.e 0 ",
"s s e e z s @ o # $ 3 e 0 j y.y.Z e l 9 e q # $ e Z m.g.i z m.x.l 8 e e e e i L a.y.- O 5 e s H >._ 5 0 5 1 $ $ 5 e e z W _ Z e ",
"-.3.-.o.B.d.5 2 0 0 e e e e s V ,.9.B.g.j 0 4 e W >.V z e e z H ;.~ j q 0 i g.y.L e # $ 0 s ..;.z e e q % $ 5 5 5 e :...j l a.F.",
"o.o.[ -.g.t.Z s z z e e e 3 q 8 [ 9.B.m.V e e s 7.*.e q q q 4 s -.3.z e i L y.g.e 0 @ $ e G >./ e q e q @ $ 5 s e Z / ~ e e m.S.",
"s s s s z V / 3.S.t.j q y e e e e e i l ~ _ e i B.Z.z q @ # 1 l M.Z.e e g.x.L j e q 3 5 ~ ..z e w e e w 0 4 q i _ >.z e e e z z ",
"e e q e t e ~ 3.M.g.S e y q e e e e e s ~ >.e 7 m.i.Z e $ O 1 p m.g.l l M.m.7 1 q e e l ....H e j s e e s z e z >.W 5 q e e q e ",
"e e e e e y s z i S P _ e e t e _ 3.3.~ l e e 5 j Z E P & # 5 e e l t.g.D s % O q s :.~ j l W =.g.y.s e g.n.5.! Z 8 e e e e e e ",
"e e e e e e e q r e 7.5.s e s V _ *.-.P 7 3 q q 4 e =.4.& + 4 e 0 z S.C.7 2 > > y s 7.5.s i } *.M.y.V l x.S.o.>.s w q q q e e e ",
"e e e e e e e e w l Z.G.e i g.g.l e s 5 @ $ $ $ r z B.x.; # 4 e 0 l J.B.& $ 3 q w s Z.B.z e s s s S m.n.S s s e s 5 $ # 3 e e e ",
"q q q 5 e e e e w l g.g.V l x.m.s 4 4 3 & & @ & q z S.c.& % q e s S y.e.- : e e s Z g.m.z w e e e G n.m.e t q q 5 1 $ $ 3 w 5 5 ",
"# # o $ q e e e e e i J g.g.D s e e 4 e R [ +.W e e H.J.7 5 0 i x.x.V 5 q q q z >._ S z e e e H ,._ l s e e e q $ $ 3 q w 1 @ o ",
"O O O $ q q 5 5 e q e V x.m.e 1 q e s G >.&.-._ l l t.i.d w i S n.x.l i i e q z 9.9.s q e e e s o.o.8 0 e e q 3 $ $ 5 e e 5 #   ",
"q q q 4 $ O O @ 5 s W [ G 5 @ @ 1 s n.f.F e e z ~ W l i y e a.m.L H _ ..e q e j Z.M.l q s e e s -.[ s q e q @ & 3 q q e e q $ o ",
"e e e q $ O @ $ q f 9.9.e 2 @ @ e Z x.f.j 0 w s *.*.s 5 5 l t.a.p y _ _ V s e j C.B.z q 5 e e s *.*.s q e q @ O q e e e e q $   ",
"e e e e 5 5 0 0 4 s H.g.; + o & d.x.S z e e e j Z.Z.e e _ } S j e e 7 V 1.:.e i Z.B.z 3 $ , 4 j M.M.j 0 e 0 O O q e e e e 5 $ . ",
"e e e e e e s l i F M.d.= O & < f.n.7 2 q q q i t.g.l s [ <.e 5 5 q 5 e >.1.j l y.y.e 2 @ $ 4 j g.B.i 0 e 1 @ @ 3 q e e e 1 $ $ ",
"q q e e 4 s x.c.B.i.S i q 5 g.g.V i $ O @ $ O @ i L m.t.Z y @ + $ & 1 e e j W ..G 5 $ # 3 q 0 j g.B.i 0 e e q 3 $ $ 5 e e e q q ",
"s s e s z S x.S.G.i.i 0 s D g.n.s 0 , o # O O O 2 i Z.B.i q $ # # # q e i l >.[ i 4 # $ q e 5 V g.e.l y e e e q $ $ 1 4 e q j H ",
"3.3.-.+.Z.g.Z s l Z e s x.x.D s e e q q q q q 5 0 e 7.T s 0 q q q 0 t s m.i.H e i j q 5 w 5 W >.H l P } e 0 e e 5 5 $ @ 0 s W 3.",
"[ o.[ -.v.g.Z 8 y y 1 j n.B.s 4 e e q y y e w e i H W Y l j e e e e i V g.m.i 4 3 3 e e s V >._ q q o.+.H s e e 5 5 $ $ e G >.#.",
"z j s s s S x.m.l e e H 8.0.s 5 e 5 # o o % 4 s ! <.s l n.n.s 4 4 s n.x.F z e e # > q j g.u.S e $ $ e Z W _ e q 5 e 0 e d.g.V s ",
"5 5 q e 0 i Z.Z.j e 4 e >.>.V s 5 3 $ $ $ > 5 s *.8.e e n.x.G z z D f.x.s 0 e q + $ q z Z.V.z q $ $ 2 i ,._ H e e e s Z m.i.i r ",
"$ > 3 e 0 y 4.o.s 4 % & 5 K y.m.j q u 5 3 q 0 8 B.B.l e e V g.C.S.g.V s e e e q + $ q s -.*.i q 5 1 $ $ 5 Z ~ _ e s ~ P l z e i ",
"- & 5 s j l W P s 4 O O 3 j g.m.V e y e s s s 9 m.g.8 q e l e.s.g.a.l e q e e q + $ 5 s ;.~ j s e q O @ 4 s ..-.e s o.o.5 2 e e ",
"I I ..o.B.m.F e e 1 + $ q e s l E ~ e e ~  .Z.g.S j e e / W ; * p H P ~ e 0 e q O $ q e e Z / W e 3 O $ 4 s 1.*.e e B.B.; $ q a ",
"-.-.-.*.S.g.l e s 9 O > q e 0 e _ _ H l E o.n.i.s w e e -.+.% o q e ~ Y l i s q > > q e q s ;.~ H 3 @ $ 5 a P W f H g.g.; # q e ",
"e s s s i l ^ 3.S.m.5 0 e e q q 5 l i.m.d e z z e e e i o.-.5 4 e e s Z M.t.j y q 4 e e e e e z W _ i 5 a q & ; ,.:.V j 5 q e e ",
"w w w e t e ^ 3.F.n.V s e e z j 8 V n.n.H e 4 4 q e e i [ } F j e e w H x.y.9 j e e e e e 5 5 z W >.s e e y $ & o.*.8 w e e q q ",
"e e e e e e e i y V y.g.7 j m.S.#.W l l E ( & o $ $ 5 e e l i.m.j e s a j S y.y.i q e e 0 s _ W z e e y e e q e [ &.s w e q % + ",
"e e e e e e q q t s i.m.l z i.Z.*.E e e 4.4.; O $ $ 5 q 0 j B.B.l e q 3 q z m.M.l e e e z Z >._ e 5 5 5 5 e e s *.9.s w e q $ o ",
"e e e e e e e e e e 7 V >.[ l s e e y l V.C.8 1 4 5 $ $ 4 f 5.*.j q # $ q s i G >.W 5 5 m.m.H w e 4 % o o % 0 z B.B.j q e 5 @ o ",
"4 4 4 4 4 q q q e e e e ;._ j e e e e H g.g.L s a q @ O e J W W s 4 $ @ 5 q 0 e >.W l F g.n.G e s e + O o O q G g.d.s e e 5 $ $ ",
"$ $ $ $ $ $ $ $ 5 e e e e Z ~ -.+.~ i q i V w.e.z q 3 e a.m.G s e w e 5 @ > q e e V a.g.F V t.B.*.^ 5 3 q e >.,.l 8 e e e e q q ",
"O O O O O O O @ q e e e q s ;.....E l i t 5 g.c.z e 8 G m.a.s w y 5 e q @ $ q e w s D.Z.i i t.v.8.>.Z z s Z [ [ s 5 3 e e q e q ",
"q q q q q q q q e e e e e e e s e H W } e e 9.5.s e ~ _ V 8 5 e e 5 # # 3 q q e 4 s 5.4.z e j j e S t.M.+.P 9 i e 5 $ # @ % 5 3 ",
"e e e e e e e e e e e e e 5 5 e e e +.+.e f &.o.s e 3.-.s w 5 y y e # O e e e q q s ....s e y q 5 s S.J.q.1.i r e 5 $ . . $ 5 e "
};
